<?xml version="1.0" encoding="utf-8" standalone="no"?>
<!DOCTYPE svg PUBLIC "-//W3C//DTD SVG 1.1//EN"
  "http://www.w3.org/Graphics/SVG/1.1/DTD/svg11.dtd">
<svg xmlns:xlink="http://www.w3.org/1999/xlink" width="329.98125pt" height="211.098125pt" viewBox="0 0 329.98125 211.098125" xmlns="http://www.w3.org/2000/svg" version="1.1">
 <metadata>
  <rdf:RDF xmlns:dc="http://purl.org/dc/elements/1.1/" xmlns:cc="http://creativecommons.org/ns#" xmlns:rdf="http://www.w3.org/1999/02/22-rdf-syntax-ns#">
   <cc:Work>
    <dc:type rdf:resource="http://purl.org/dc/dcmitype/StillImage"/>
    <dc:date>2025-04-19T16:13:58.901754</dc:date>
    <dc:format>image/svg+xml</dc:format>
    <dc:creator>
     <cc:Agent>
      <dc:title>Matplotlib v3.9.2, https://matplotlib.org/</dc:title>
     </cc:Agent>
    </dc:creator>
   </cc:Work>
  </rdf:RDF>
 </metadata>
 <defs>
  <style type="text/css">*{stroke-linejoin: round; stroke-linecap: butt}</style>
 </defs>
 <g id="figure_1">
  <g id="patch_1">
   <path d="M 0 211.098125 
L 329.98125 211.098125 
L 329.98125 0 
L 0 0 
z
" style="fill: #ffffff"/>
  </g>
  <g id="axes_1">
   <g id="patch_2">
    <path d="M 43.78125 173.52 
L 322.78125 173.52 
L 322.78125 7.2 
L 43.78125 7.2 
z
" style="fill: #ffffff"/>
   </g>
   <g id="matplotlib.axis_1">
    <g id="xtick_1">
     <g id="line2d_1">
      <defs>
       <path id="m3766e029dc" d="M 0 0 
L 0 3.5 
" style="stroke: #000000; stroke-width: 0.8"/>
      </defs>
      <g>
       <use xlink:href="#m3766e029dc" x="43.78125" y="173.52" style="stroke: #000000; stroke-width: 0.8"/>
      </g>
     </g>
     <g id="text_1">
      <!-- 0 -->
      <g transform="translate(40.6 188.118438) scale(0.1 -0.1)">
       <defs>
        <path id="DejaVuSans-30" d="M 2034 4250 
Q 1547 4250 1301 3770 
Q 1056 3291 1056 2328 
Q 1056 1369 1301 889 
Q 1547 409 2034 409 
Q 2525 409 2770 889 
Q 3016 1369 3016 2328 
Q 3016 3291 2770 3770 
Q 2525 4250 2034 4250 
z
M 2034 4750 
Q 2819 4750 3233 4129 
Q 3647 3509 3647 2328 
Q 3647 1150 3233 529 
Q 2819 -91 2034 -91 
Q 1250 -91 836 529 
Q 422 1150 422 2328 
Q 422 3509 836 4129 
Q 1250 4750 2034 4750 
z
" transform="scale(0.015625)"/>
       </defs>
       <use xlink:href="#DejaVuSans-30"/>
      </g>
     </g>
    </g>
    <g id="xtick_2">
     <g id="line2d_2">
      <g>
       <use xlink:href="#m3766e029dc" x="80.98125" y="173.52" style="stroke: #000000; stroke-width: 0.8"/>
      </g>
     </g>
     <g id="text_2">
      <!-- 200 -->
      <g transform="translate(71.4375 188.118438) scale(0.1 -0.1)">
       <defs>
        <path id="DejaVuSans-32" d="M 1228 531 
L 3431 531 
L 3431 0 
L 469 0 
L 469 531 
Q 828 903 1448 1529 
Q 2069 2156 2228 2338 
Q 2531 2678 2651 2914 
Q 2772 3150 2772 3378 
Q 2772 3750 2511 3984 
Q 2250 4219 1831 4219 
Q 1534 4219 1204 4116 
Q 875 4013 500 3803 
L 500 4441 
Q 881 4594 1212 4672 
Q 1544 4750 1819 4750 
Q 2544 4750 2975 4387 
Q 3406 4025 3406 3419 
Q 3406 3131 3298 2873 
Q 3191 2616 2906 2266 
Q 2828 2175 2409 1742 
Q 1991 1309 1228 531 
z
" transform="scale(0.015625)"/>
       </defs>
       <use xlink:href="#DejaVuSans-32"/>
       <use xlink:href="#DejaVuSans-30" x="63.623047"/>
       <use xlink:href="#DejaVuSans-30" x="127.246094"/>
      </g>
     </g>
    </g>
    <g id="xtick_3">
     <g id="line2d_3">
      <g>
       <use xlink:href="#m3766e029dc" x="118.18125" y="173.52" style="stroke: #000000; stroke-width: 0.8"/>
      </g>
     </g>
     <g id="text_3">
      <!-- 400 -->
      <g transform="translate(108.6375 188.118438) scale(0.1 -0.1)">
       <defs>
        <path id="DejaVuSans-34" d="M 2419 4116 
L 825 1625 
L 2419 1625 
L 2419 4116 
z
M 2253 4666 
L 3047 4666 
L 3047 1625 
L 3713 1625 
L 3713 1100 
L 3047 1100 
L 3047 0 
L 2419 0 
L 2419 1100 
L 313 1100 
L 313 1709 
L 2253 4666 
z
" transform="scale(0.015625)"/>
       </defs>
       <use xlink:href="#DejaVuSans-34"/>
       <use xlink:href="#DejaVuSans-30" x="63.623047"/>
       <use xlink:href="#DejaVuSans-30" x="127.246094"/>
      </g>
     </g>
    </g>
    <g id="xtick_4">
     <g id="line2d_4">
      <g>
       <use xlink:href="#m3766e029dc" x="155.38125" y="173.52" style="stroke: #000000; stroke-width: 0.8"/>
      </g>
     </g>
     <g id="text_4">
      <!-- 600 -->
      <g transform="translate(145.8375 188.118438) scale(0.1 -0.1)">
       <defs>
        <path id="DejaVuSans-36" d="M 2113 2584 
Q 1688 2584 1439 2293 
Q 1191 2003 1191 1497 
Q 1191 994 1439 701 
Q 1688 409 2113 409 
Q 2538 409 2786 701 
Q 3034 994 3034 1497 
Q 3034 2003 2786 2293 
Q 2538 2584 2113 2584 
z
M 3366 4563 
L 3366 3988 
Q 3128 4100 2886 4159 
Q 2644 4219 2406 4219 
Q 1781 4219 1451 3797 
Q 1122 3375 1075 2522 
Q 1259 2794 1537 2939 
Q 1816 3084 2150 3084 
Q 2853 3084 3261 2657 
Q 3669 2231 3669 1497 
Q 3669 778 3244 343 
Q 2819 -91 2113 -91 
Q 1303 -91 875 529 
Q 447 1150 447 2328 
Q 447 3434 972 4092 
Q 1497 4750 2381 4750 
Q 2619 4750 2861 4703 
Q 3103 4656 3366 4563 
z
" transform="scale(0.015625)"/>
       </defs>
       <use xlink:href="#DejaVuSans-36"/>
       <use xlink:href="#DejaVuSans-30" x="63.623047"/>
       <use xlink:href="#DejaVuSans-30" x="127.246094"/>
      </g>
     </g>
    </g>
    <g id="xtick_5">
     <g id="line2d_5">
      <g>
       <use xlink:href="#m3766e029dc" x="192.58125" y="173.52" style="stroke: #000000; stroke-width: 0.8"/>
      </g>
     </g>
     <g id="text_5">
      <!-- 800 -->
      <g transform="translate(183.0375 188.118438) scale(0.1 -0.1)">
       <defs>
        <path id="DejaVuSans-38" d="M 2034 2216 
Q 1584 2216 1326 1975 
Q 1069 1734 1069 1313 
Q 1069 891 1326 650 
Q 1584 409 2034 409 
Q 2484 409 2743 651 
Q 3003 894 3003 1313 
Q 3003 1734 2745 1975 
Q 2488 2216 2034 2216 
z
M 1403 2484 
Q 997 2584 770 2862 
Q 544 3141 544 3541 
Q 544 4100 942 4425 
Q 1341 4750 2034 4750 
Q 2731 4750 3128 4425 
Q 3525 4100 3525 3541 
Q 3525 3141 3298 2862 
Q 3072 2584 2669 2484 
Q 3125 2378 3379 2068 
Q 3634 1759 3634 1313 
Q 3634 634 3220 271 
Q 2806 -91 2034 -91 
Q 1263 -91 848 271 
Q 434 634 434 1313 
Q 434 1759 690 2068 
Q 947 2378 1403 2484 
z
M 1172 3481 
Q 1172 3119 1398 2916 
Q 1625 2713 2034 2713 
Q 2441 2713 2670 2916 
Q 2900 3119 2900 3481 
Q 2900 3844 2670 4047 
Q 2441 4250 2034 4250 
Q 1625 4250 1398 4047 
Q 1172 3844 1172 3481 
z
" transform="scale(0.015625)"/>
       </defs>
       <use xlink:href="#DejaVuSans-38"/>
       <use xlink:href="#DejaVuSans-30" x="63.623047"/>
       <use xlink:href="#DejaVuSans-30" x="127.246094"/>
      </g>
     </g>
    </g>
    <g id="xtick_6">
     <g id="line2d_6">
      <g>
       <use xlink:href="#m3766e029dc" x="229.78125" y="173.52" style="stroke: #000000; stroke-width: 0.8"/>
      </g>
     </g>
     <g id="text_6">
      <!-- 1000 -->
      <g transform="translate(217.05625 188.118438) scale(0.1 -0.1)">
       <defs>
        <path id="DejaVuSans-31" d="M 794 531 
L 1825 531 
L 1825 4091 
L 703 3866 
L 703 4441 
L 1819 4666 
L 2450 4666 
L 2450 531 
L 3481 531 
L 3481 0 
L 794 0 
L 794 531 
z
" transform="scale(0.015625)"/>
       </defs>
       <use xlink:href="#DejaVuSans-31"/>
       <use xlink:href="#DejaVuSans-30" x="63.623047"/>
       <use xlink:href="#DejaVuSans-30" x="127.246094"/>
       <use xlink:href="#DejaVuSans-30" x="190.869141"/>
      </g>
     </g>
    </g>
    <g id="xtick_7">
     <g id="line2d_7">
      <g>
       <use xlink:href="#m3766e029dc" x="266.98125" y="173.52" style="stroke: #000000; stroke-width: 0.8"/>
      </g>
     </g>
     <g id="text_7">
      <!-- 1200 -->
      <g transform="translate(254.25625 188.118438) scale(0.1 -0.1)">
       <use xlink:href="#DejaVuSans-31"/>
       <use xlink:href="#DejaVuSans-32" x="63.623047"/>
       <use xlink:href="#DejaVuSans-30" x="127.246094"/>
       <use xlink:href="#DejaVuSans-30" x="190.869141"/>
      </g>
     </g>
    </g>
    <g id="xtick_8">
     <g id="line2d_8">
      <g>
       <use xlink:href="#m3766e029dc" x="304.18125" y="173.52" style="stroke: #000000; stroke-width: 0.8"/>
      </g>
     </g>
     <g id="text_8">
      <!-- 1400 -->
      <g transform="translate(291.45625 188.118438) scale(0.1 -0.1)">
       <use xlink:href="#DejaVuSans-31"/>
       <use xlink:href="#DejaVuSans-34" x="63.623047"/>
       <use xlink:href="#DejaVuSans-30" x="127.246094"/>
       <use xlink:href="#DejaVuSans-30" x="190.869141"/>
      </g>
     </g>
    </g>
    <g id="text_9">
     <!-- $Epochs$ -->
     <g transform="translate(165.33125 201.798125) scale(0.1 -0.1)">
      <defs>
       <path id="DejaVuSans-Oblique-45" d="M 1081 4666 
L 4031 4666 
L 3928 4134 
L 1606 4134 
L 1338 2753 
L 3566 2753 
L 3463 2222 
L 1234 2222 
L 909 531 
L 3284 531 
L 3181 0 
L 172 0 
L 1081 4666 
z
" transform="scale(0.015625)"/>
       <path id="DejaVuSans-Oblique-70" d="M 3175 2156 
Q 3175 2616 2975 2859 
Q 2775 3103 2400 3103 
Q 2144 3103 1911 2972 
Q 1678 2841 1497 2591 
Q 1319 2344 1212 1994 
Q 1106 1644 1106 1300 
Q 1106 863 1306 627 
Q 1506 391 1875 391 
Q 2147 391 2380 519 
Q 2613 647 2778 891 
Q 2956 1147 3065 1494 
Q 3175 1841 3175 2156 
z
M 1394 2969 
Q 1625 3272 1939 3428 
Q 2253 3584 2638 3584 
Q 3175 3584 3472 3232 
Q 3769 2881 3769 2247 
Q 3769 1728 3584 1258 
Q 3400 788 3053 416 
Q 2822 169 2531 39 
Q 2241 -91 1919 -91 
Q 1547 -91 1294 64 
Q 1041 219 916 525 
L 556 -1331 
L -19 -1331 
L 922 3500 
L 1497 3500 
L 1394 2969 
z
" transform="scale(0.015625)"/>
       <path id="DejaVuSans-Oblique-6f" d="M 1625 -91 
Q 1009 -91 651 289 
Q 294 669 294 1325 
Q 294 1706 417 2101 
Q 541 2497 738 2766 
Q 1047 3184 1428 3384 
Q 1809 3584 2291 3584 
Q 2888 3584 3255 3212 
Q 3622 2841 3622 2241 
Q 3622 1825 3500 1412 
Q 3378 1000 3181 728 
Q 2875 309 2494 109 
Q 2113 -91 1625 -91 
z
M 891 1344 
Q 891 869 1089 633 
Q 1288 397 1691 397 
Q 2269 397 2648 901 
Q 3028 1406 3028 2181 
Q 3028 2634 2825 2865 
Q 2622 3097 2228 3097 
Q 1903 3097 1650 2945 
Q 1397 2794 1197 2484 
Q 1050 2253 970 1956 
Q 891 1659 891 1344 
z
" transform="scale(0.015625)"/>
       <path id="DejaVuSans-Oblique-63" d="M 3431 3366 
L 3316 2797 
Q 3109 2947 2876 3022 
Q 2644 3097 2394 3097 
Q 2119 3097 1870 3000 
Q 1622 2903 1453 2725 
Q 1184 2453 1037 2087 
Q 891 1722 891 1331 
Q 891 859 1127 628 
Q 1363 397 1844 397 
Q 2081 397 2348 469 
Q 2616 541 2906 684 
L 2797 116 
Q 2547 13 2283 -39 
Q 2019 -91 1741 -91 
Q 1044 -91 669 257 
Q 294 606 294 1253 
Q 294 1797 489 2255 
Q 684 2713 1069 3078 
Q 1331 3328 1684 3456 
Q 2038 3584 2456 3584 
Q 2700 3584 2940 3529 
Q 3181 3475 3431 3366 
z
" transform="scale(0.015625)"/>
       <path id="DejaVuSans-Oblique-68" d="M 3566 2113 
L 3156 0 
L 2578 0 
L 2988 2091 
Q 3016 2238 3031 2350 
Q 3047 2463 3047 2528 
Q 3047 2791 2881 2937 
Q 2716 3084 2419 3084 
Q 1956 3084 1617 2771 
Q 1278 2459 1178 1941 
L 800 0 
L 225 0 
L 1172 4863 
L 1747 4863 
L 1375 2950 
Q 1594 3244 1934 3414 
Q 2275 3584 2650 3584 
Q 3113 3584 3367 3334 
Q 3622 3084 3622 2631 
Q 3622 2519 3608 2391 
Q 3594 2263 3566 2113 
z
" transform="scale(0.015625)"/>
       <path id="DejaVuSans-Oblique-73" d="M 3200 3397 
L 3091 2853 
Q 2863 2978 2609 3040 
Q 2356 3103 2088 3103 
Q 1634 3103 1373 2948 
Q 1113 2794 1113 2528 
Q 1113 2219 1719 2053 
Q 1766 2041 1788 2034 
L 1972 1978 
Q 2547 1819 2739 1644 
Q 2931 1469 2931 1166 
Q 2931 609 2489 259 
Q 2047 -91 1331 -91 
Q 1053 -91 747 -37 
Q 441 16 72 128 
L 184 722 
Q 500 559 806 475 
Q 1113 391 1394 391 
Q 1816 391 2080 572 
Q 2344 753 2344 1031 
Q 2344 1331 1650 1516 
L 1591 1531 
L 1394 1581 
Q 956 1697 753 1886 
Q 550 2075 550 2369 
Q 550 2928 970 3256 
Q 1391 3584 2113 3584 
Q 2397 3584 2667 3537 
Q 2938 3491 3200 3397 
z
" transform="scale(0.015625)"/>
      </defs>
      <use xlink:href="#DejaVuSans-Oblique-45" transform="translate(0 0.015625)"/>
      <use xlink:href="#DejaVuSans-Oblique-70" transform="translate(63.183594 0.015625)"/>
      <use xlink:href="#DejaVuSans-Oblique-6f" transform="translate(126.660156 0.015625)"/>
      <use xlink:href="#DejaVuSans-Oblique-63" transform="translate(187.841797 0.015625)"/>
      <use xlink:href="#DejaVuSans-Oblique-68" transform="translate(242.822266 0.015625)"/>
      <use xlink:href="#DejaVuSans-Oblique-73" transform="translate(306.201172 0.015625)"/>
     </g>
    </g>
   </g>
   <g id="matplotlib.axis_2">
    <g id="ytick_1">
     <g id="line2d_9">
      <defs>
       <path id="mdb735db2f3" d="M 0 0 
L -3.5 0 
" style="stroke: #000000; stroke-width: 0.8"/>
      </defs>
      <g>
       <use xlink:href="#mdb735db2f3" x="43.78125" y="143.557002" style="stroke: #000000; stroke-width: 0.8"/>
      </g>
     </g>
     <g id="text_10">
      <!-- 0.1 -->
      <g transform="translate(20.878125 147.356221) scale(0.1 -0.1)">
       <defs>
        <path id="DejaVuSans-2e" d="M 684 794 
L 1344 794 
L 1344 0 
L 684 0 
L 684 794 
z
" transform="scale(0.015625)"/>
       </defs>
       <use xlink:href="#DejaVuSans-30"/>
       <use xlink:href="#DejaVuSans-2e" x="63.623047"/>
       <use xlink:href="#DejaVuSans-31" x="95.410156"/>
      </g>
     </g>
    </g>
    <g id="ytick_2">
     <g id="line2d_10">
      <g>
       <use xlink:href="#mdb735db2f3" x="43.78125" y="111.458283" style="stroke: #000000; stroke-width: 0.8"/>
      </g>
     </g>
     <g id="text_11">
      <!-- 0.2 -->
      <g transform="translate(20.878125 115.257501) scale(0.1 -0.1)">
       <use xlink:href="#DejaVuSans-30"/>
       <use xlink:href="#DejaVuSans-2e" x="63.623047"/>
       <use xlink:href="#DejaVuSans-32" x="95.410156"/>
      </g>
     </g>
    </g>
    <g id="ytick_3">
     <g id="line2d_11">
      <g>
       <use xlink:href="#mdb735db2f3" x="43.78125" y="79.359563" style="stroke: #000000; stroke-width: 0.8"/>
      </g>
     </g>
     <g id="text_12">
      <!-- 0.3 -->
      <g transform="translate(20.878125 83.158782) scale(0.1 -0.1)">
       <defs>
        <path id="DejaVuSans-33" d="M 2597 2516 
Q 3050 2419 3304 2112 
Q 3559 1806 3559 1356 
Q 3559 666 3084 287 
Q 2609 -91 1734 -91 
Q 1441 -91 1130 -33 
Q 819 25 488 141 
L 488 750 
Q 750 597 1062 519 
Q 1375 441 1716 441 
Q 2309 441 2620 675 
Q 2931 909 2931 1356 
Q 2931 1769 2642 2001 
Q 2353 2234 1838 2234 
L 1294 2234 
L 1294 2753 
L 1863 2753 
Q 2328 2753 2575 2939 
Q 2822 3125 2822 3475 
Q 2822 3834 2567 4026 
Q 2313 4219 1838 4219 
Q 1578 4219 1281 4162 
Q 984 4106 628 3988 
L 628 4550 
Q 988 4650 1302 4700 
Q 1616 4750 1894 4750 
Q 2613 4750 3031 4423 
Q 3450 4097 3450 3541 
Q 3450 3153 3228 2886 
Q 3006 2619 2597 2516 
z
" transform="scale(0.015625)"/>
       </defs>
       <use xlink:href="#DejaVuSans-30"/>
       <use xlink:href="#DejaVuSans-2e" x="63.623047"/>
       <use xlink:href="#DejaVuSans-33" x="95.410156"/>
      </g>
     </g>
    </g>
    <g id="ytick_4">
     <g id="line2d_12">
      <g>
       <use xlink:href="#mdb735db2f3" x="43.78125" y="47.260843" style="stroke: #000000; stroke-width: 0.8"/>
      </g>
     </g>
     <g id="text_13">
      <!-- 0.4 -->
      <g transform="translate(20.878125 51.060062) scale(0.1 -0.1)">
       <use xlink:href="#DejaVuSans-30"/>
       <use xlink:href="#DejaVuSans-2e" x="63.623047"/>
       <use xlink:href="#DejaVuSans-34" x="95.410156"/>
      </g>
     </g>
    </g>
    <g id="ytick_5">
     <g id="line2d_13">
      <g>
       <use xlink:href="#mdb735db2f3" x="43.78125" y="15.162123" style="stroke: #000000; stroke-width: 0.8"/>
      </g>
     </g>
     <g id="text_14">
      <!-- 0.5 -->
      <g transform="translate(20.878125 18.961342) scale(0.1 -0.1)">
       <defs>
        <path id="DejaVuSans-35" d="M 691 4666 
L 3169 4666 
L 3169 4134 
L 1269 4134 
L 1269 2991 
Q 1406 3038 1543 3061 
Q 1681 3084 1819 3084 
Q 2600 3084 3056 2656 
Q 3513 2228 3513 1497 
Q 3513 744 3044 326 
Q 2575 -91 1722 -91 
Q 1428 -91 1123 -41 
Q 819 9 494 109 
L 494 744 
Q 775 591 1075 516 
Q 1375 441 1709 441 
Q 2250 441 2565 725 
Q 2881 1009 2881 1497 
Q 2881 1984 2565 2268 
Q 2250 2553 1709 2553 
Q 1456 2553 1204 2497 
Q 953 2441 691 2322 
L 691 4666 
z
" transform="scale(0.015625)"/>
       </defs>
       <use xlink:href="#DejaVuSans-30"/>
       <use xlink:href="#DejaVuSans-2e" x="63.623047"/>
       <use xlink:href="#DejaVuSans-35" x="95.410156"/>
      </g>
     </g>
    </g>
    <g id="text_15">
     <!-- $Loss$ -->
     <g transform="translate(14.798438 101.46) rotate(-90) scale(0.1 -0.1)">
      <defs>
       <path id="DejaVuSans-Oblique-4c" d="M 1075 4666 
L 1709 4666 
L 909 525 
L 3181 525 
L 3078 0 
L 172 0 
L 1075 4666 
z
" transform="scale(0.015625)"/>
      </defs>
      <use xlink:href="#DejaVuSans-Oblique-4c" transform="translate(0 0.09375)"/>
      <use xlink:href="#DejaVuSans-Oblique-6f" transform="translate(55.712891 0.09375)"/>
      <use xlink:href="#DejaVuSans-Oblique-73" transform="translate(116.894531 0.09375)"/>
      <use xlink:href="#DejaVuSans-Oblique-73" transform="translate(168.994141 0.09375)"/>
     </g>
    </g>
   </g>
   <g id="line2d_14">
    <path d="M 43.78125 34.490586 
L 43.96725 34.833504 
L 44.15325 34.855899 
L 44.33925 35.917877 
L 44.52525 36.217078 
L 44.71125 36.101844 
L 44.89725 36.22232 
L 45.26925 36.185012 
L 45.64125 36.836401 
L 45.82725 37.401579 
L 46.01325 35.927539 
L 46.38525 36.330934 
L 46.75725 37.365831 
L 46.94325 37.498571 
L 47.31525 38.067805 
L 47.50125 38.325126 
L 47.68725 38.020941 
L 48.24525 39.895555 
L 48.43125 40.032035 
L 48.61725 39.933026 
L 48.80325 40.115902 
L 48.98925 39.850537 
L 49.17525 40.013448 
L 49.36125 35.81065 
L 49.54725 36.010401 
L 49.73325 39.911502 
L 49.91925 40.504106 
L 50.10525 40.461001 
L 50.29125 39.981268 
L 50.66325 40.99508 
L 50.84925 40.905331 
L 51.03525 40.436904 
L 51.40725 41.358135 
L 51.77925 41.023023 
L 51.96525 42.231354 
L 52.33725 42.058752 
L 52.52325 42.407419 
L 53.63925 40.766286 
L 53.82525 41.212385 
L 54.19725 41.320483 
L 54.38325 40.49389 
L 54.56925 41.656963 
L 54.94125 41.788928 
L 55.12725 40.095698 
L 55.49925 40.489805 
L 55.68525 40.58518 
L 55.87125 40.823205 
L 56.05725 35.912625 
L 56.24325 36.260107 
L 56.42925 36.233819 
L 56.61525 37.535008 
L 56.80125 36.584696 
L 56.98725 36.439329 
L 57.17325 38.489138 
L 57.54525 37.956073 
L 57.73125 38.812943 
L 57.91725 38.926254 
L 58.10325 38.773109 
L 58.28925 39.325086 
L 58.47525 40.364268 
L 58.66125 39.472185 
L 58.84725 39.717825 
L 59.03325 40.73357 
L 59.21925 40.688265 
L 59.40525 40.271142 
L 59.59125 40.520245 
L 59.96325 41.895591 
L 60.14925 40.564105 
L 60.52125 41.388575 
L 60.70725 40.222383 
L 61.07925 41.373862 
L 61.26525 41.529924 
L 61.45125 42.154432 
L 61.63725 40.297439 
L 61.82325 42.405889 
L 62.00925 42.65965 
L 62.19525 42.385895 
L 62.56725 42.437581 
L 62.75325 42.453404 
L 62.93925 42.141068 
L 63.12525 43.068058 
L 63.49725 41.845072 
L 64.24125 44.505872 
L 64.61325 45.622301 
L 64.79925 46.553404 
L 64.98525 50.393205 
L 65.17125 50.23258 
L 65.35725 44.594101 
L 65.72925 44.871586 
L 65.91525 44.442142 
L 66.10125 58.236388 
L 66.28725 58.908401 
L 66.47325 58.580933 
L 66.84525 58.800093 
L 67.03125 58.74041 
L 67.21725 59.123191 
L 67.40325 60.319612 
L 67.58925 60.726288 
L 67.77525 60.662195 
L 67.96125 61.300258 
L 68.14725 61.156536 
L 68.33325 61.382604 
L 68.51925 61.048381 
L 68.89125 61.678093 
L 69.07725 61.858415 
L 69.44925 62.74318 
L 69.82125 61.39459 
L 70.00725 61.972367 
L 70.19325 61.955158 
L 70.37925 61.717219 
L 70.56525 61.695561 
L 70.93725 60.830033 
L 71.30925 60.668088 
L 71.49525 61.4398 
L 71.68125 60.765605 
L 71.86725 63.120881 
L 72.05325 63.997715 
L 72.23925 62.779331 
L 72.42525 62.873155 
L 72.79725 62.041645 
L 72.98325 62.173295 
L 73.16925 63.133585 
L 73.35525 62.173257 
L 73.54125 62.178241 
L 73.72725 62.064949 
L 73.91325 62.247729 
L 74.09925 62.034251 
L 74.47125 64.846052 
L 75.02925 63.582936 
L 75.40125 64.305229 
L 75.58725 54.081736 
L 75.77325 53.578919 
L 76.14525 54.3705 
L 76.33125 55.118498 
L 76.51725 53.75553 
L 76.70325 54.926103 
L 76.88925 53.824731 
L 77.07525 54.950832 
L 77.63325 55.442341 
L 77.81925 56.196729 
L 78.00525 56.142709 
L 78.19125 56.867288 
L 78.37725 58.199721 
L 78.56325 57.741042 
L 78.74925 58.088438 
L 78.93525 58.082382 
L 79.30725 59.61271 
L 79.49325 58.592029 
L 79.86525 60.438308 
L 80.23725 58.783018 
L 80.60925 57.812052 
L 80.79525 58.745375 
L 80.98125 58.996133 
L 81.16725 58.589839 
L 81.53925 59.889383 
L 81.72525 60.893562 
L 81.91125 60.917688 
L 82.09725 62.150747 
L 82.28325 62.349542 
L 82.65525 64.038161 
L 82.84125 64.919368 
L 83.02725 66.962815 
L 83.21325 65.835031 
L 83.39925 65.706538 
L 83.58525 65.910613 
L 83.77125 67.199377 
L 83.95725 66.034754 
L 84.14325 69.833075 
L 84.32925 69.570972 
L 84.88725 71.385109 
L 85.07325 71.164953 
L 85.63125 71.959509 
L 85.81725 73.60972 
L 86.18925 74.48512 
L 86.37525 74.482623 
L 86.56125 74.825427 
L 86.74725 79.475223 
L 86.93325 79.727139 
L 87.30525 80.526287 
L 87.49125 80.325694 
L 87.86325 79.528717 
L 88.42125 80.580555 
L 88.60725 80.201458 
L 88.79325 81.198472 
L 88.97925 80.1582 
L 89.16525 80.299903 
L 89.35125 79.513383 
L 89.72325 79.893188 
L 89.90925 79.107098 
L 90.09525 80.981531 
L 90.28125 81.623315 
L 90.46725 72.093445 
L 90.83925 70.629363 
L 91.21125 71.324259 
L 91.39725 72.55859 
L 91.58325 72.001677 
L 91.76925 71.847537 
L 91.95525 72.360351 
L 92.14125 72.505163 
L 92.32725 71.746662 
L 92.51325 71.763116 
L 92.69925 72.091054 
L 92.88525 70.516807 
L 93.07125 71.316931 
L 93.25725 70.770091 
L 93.44325 69.586335 
L 93.81525 70.842755 
L 94.00125 70.33991 
L 94.18725 70.701348 
L 94.55925 72.634555 
L 94.74525 71.064805 
L 94.93125 72.30303 
L 95.30325 71.544577 
L 95.48925 71.649097 
L 95.67525 73.169055 
L 95.86125 71.019356 
L 96.04725 70.712177 
L 96.23325 69.847683 
L 96.41925 70.014201 
L 96.79125 72.876541 
L 96.97725 72.655343 
L 97.16325 74.874903 
L 97.34925 75.04057 
L 97.53525 76.863527 
L 97.72125 77.13402 
L 97.90725 78.164812 
L 98.09325 78.164726 
L 98.27925 77.30115 
L 98.46525 77.686571 
L 98.65125 78.865907 
L 98.83725 78.718894 
L 99.02325 79.561969 
L 99.39525 84.337953 
L 99.58125 84.413459 
L 99.76725 83.233492 
L 100.13925 84.257033 
L 100.32525 81.707899 
L 100.51125 81.359079 
L 100.88325 81.702064 
L 101.25525 82.960292 
L 101.44125 82.217957 
L 101.62725 83.364108 
L 101.99925 82.307803 
L 102.18525 80.584219 
L 102.37125 80.910454 
L 102.74325 79.069742 
L 102.92925 80.306007 
L 103.11525 79.225929 
L 103.48725 80.567182 
L 103.67325 80.530037 
L 103.85925 81.086787 
L 104.04525 80.642841 
L 104.23125 81.313534 
L 104.41725 81.269826 
L 104.60325 81.410545 
L 104.78925 81.058969 
L 104.97525 81.410133 
L 105.16125 82.380927 
L 105.53325 84.652594 
L 105.90525 72.702733 
L 106.09125 72.780449 
L 106.27725 75.003386 
L 106.46325 75.649896 
L 106.83525 74.714258 
L 107.02125 73.952027 
L 107.20725 74.429742 
L 107.39325 74.136462 
L 107.57925 77.353678 
L 107.76525 75.792595 
L 107.95125 75.991753 
L 108.13725 79.095408 
L 108.32325 79.513163 
L 108.50925 81.070879 
L 108.88125 79.617128 
L 109.06725 81.52089 
L 109.43925 82.923022 
L 109.62525 82.355758 
L 109.81125 83.224356 
L 109.99725 83.12328 
L 110.18325 83.244464 
L 110.74125 84.691394 
L 110.92725 84.779786 
L 111.11325 82.97136 
L 111.29925 85.449838 
L 111.48525 85.391341 
L 111.67125 85.721412 
L 112.04325 84.734653 
L 112.22925 85.240712 
L 112.41525 85.064245 
L 112.60125 85.89763 
L 112.78725 86.127362 
L 112.97325 87.085968 
L 113.15925 96.316742 
L 113.34525 94.195388 
L 113.53125 94.170143 
L 113.71725 93.646816 
L 113.90325 93.566422 
L 114.27525 93.916008 
L 114.46125 93.904844 
L 114.64725 95.491861 
L 114.83325 95.666999 
L 115.01925 94.628171 
L 115.20525 94.81825 
L 115.39125 94.809545 
L 115.76325 96.289799 
L 115.94925 94.940535 
L 116.13525 95.05486 
L 116.32125 96.121635 
L 116.50725 95.708133 
L 116.69325 94.731715 
L 116.87925 97.056398 
L 117.06525 97.351729 
L 117.25125 96.887818 
L 117.62325 98.42809 
L 117.99525 97.786918 
L 118.18125 97.16516 
L 118.36725 98.085966 
L 118.55325 97.706572 
L 118.73925 98.476595 
L 119.11125 94.93071 
L 119.29725 98.195661 
L 119.48325 98.801099 
L 119.85525 97.074339 
L 120.04125 97.77541 
L 120.22725 99.232533 
L 120.59925 99.899931 
L 120.78525 99.878416 
L 121.15725 101.662946 
L 121.52925 102.511785 
L 121.71525 102.240747 
L 121.90125 101.442092 
L 122.27325 101.518066 
L 122.45925 102.338743 
L 122.64525 102.535992 
L 122.83125 103.05058 
L 123.01725 100.737544 
L 123.20325 100.398959 
L 123.57525 101.996083 
L 123.76125 100.04172 
L 123.94725 99.849407 
L 124.13325 100.826877 
L 124.31925 99.983577 
L 124.69125 100.854873 
L 124.87725 109.438238 
L 125.06325 110.308797 
L 125.43525 112.680058 
L 125.62125 113.37934 
L 125.80725 111.082948 
L 126.17925 112.516945 
L 126.36525 110.552151 
L 126.55125 111.956564 
L 126.73725 111.983894 
L 126.92325 112.984587 
L 127.10925 113.293498 
L 127.48125 109.946139 
L 127.66725 110.566897 
L 128.03925 112.930132 
L 128.41125 115.068016 
L 128.59725 107.853536 
L 128.78325 108.701519 
L 128.96925 108.761059 
L 129.15525 110.337165 
L 129.34125 109.976612 
L 129.52725 100.96187 
L 129.71325 101.946784 
L 129.89925 102.211852 
L 130.08525 97.59173 
L 130.27125 96.987345 
L 130.45725 97.620275 
L 130.64325 96.990114 
L 131.01525 98.432596 
L 131.20125 101.587799 
L 131.38725 99.950445 
L 131.57325 99.618948 
L 131.94525 98.708953 
L 132.31725 100.776392 
L 132.50325 101.633133 
L 132.68925 101.61016 
L 133.06125 104.130504 
L 133.24725 104.410252 
L 133.43325 106.519869 
L 133.61925 99.980248 
L 133.80525 97.715138 
L 133.99125 97.580313 
L 134.17725 98.087664 
L 134.54925 98.299999 
L 134.73525 99.730208 
L 134.92125 99.655501 
L 135.29325 99.194856 
L 135.47925 99.562972 
L 135.66525 101.796485 
L 135.85125 102.312833 
L 136.03725 108.134953 
L 136.22325 109.303379 
L 136.40925 109.296639 
L 136.59525 108.920957 
L 136.96725 109.290259 
L 137.15325 110.724375 
L 137.33925 110.555317 
L 137.52525 109.744982 
L 137.89725 110.753624 
L 138.08325 110.673196 
L 138.26925 111.011221 
L 138.45525 110.745636 
L 138.64125 110.823524 
L 138.82725 111.634663 
L 139.01325 111.544411 
L 139.19925 108.839162 
L 139.57125 107.648571 
L 139.75725 107.861897 
L 140.12925 108.655281 
L 140.31525 108.514228 
L 140.68725 105.992314 
L 140.87325 106.515631 
L 141.05925 105.339777 
L 141.24525 105.223319 
L 141.43125 104.949382 
L 141.61725 105.019756 
L 141.80325 104.920339 
L 141.98925 105.297629 
L 142.17525 104.026692 
L 142.73325 106.187325 
L 142.91925 106.482953 
L 143.10525 107.015626 
L 143.29125 103.323426 
L 143.47725 103.004108 
L 143.66325 104.392612 
L 143.84925 104.200964 
L 144.03525 104.516313 
L 144.22125 105.30201 
L 144.40725 106.800268 
L 144.59325 107.204094 
L 145.15125 110.918707 
L 145.33725 110.590889 
L 145.52325 109.724725 
L 145.70925 110.075306 
L 145.89525 111.629812 
L 146.08125 114.454122 
L 146.26725 113.968252 
L 146.45325 114.330039 
L 146.63925 113.973791 
L 146.82525 113.218996 
L 147.01125 113.52112 
L 147.19725 113.293507 
L 147.38325 114.82241 
L 147.56925 114.760703 
L 147.75525 114.350104 
L 147.94125 116.615161 
L 148.12725 116.845878 
L 148.31325 115.286694 
L 148.68525 115.297896 
L 148.87125 116.408862 
L 149.05725 116.68057 
L 149.24325 116.640134 
L 149.42925 115.874702 
L 149.61525 117.000592 
L 149.80125 116.7154 
L 149.98725 117.941984 
L 150.17325 117.791608 
L 150.54525 121.297402 
L 150.73125 119.193104 
L 150.91725 119.156752 
L 151.28925 121.312014 
L 151.66125 120.383513 
L 151.84725 119.881303 
L 152.03325 119.995442 
L 152.21925 120.241627 
L 152.40525 119.683762 
L 152.59125 120.050227 
L 153.14925 117.938884 
L 153.33525 117.899032 
L 153.52125 118.061173 
L 153.70725 119.083476 
L 153.89325 119.284102 
L 154.07925 119.229742 
L 154.45125 118.620402 
L 154.63725 119.358795 
L 154.82325 117.501768 
L 155.00925 120.785708 
L 155.19525 121.006404 
L 155.75325 129.454489 
L 155.93925 129.110547 
L 156.12525 128.386446 
L 156.31125 128.338691 
L 156.49725 124.200321 
L 156.68325 123.521095 
L 156.86925 125.057272 
L 157.05525 125.610135 
L 157.24125 127.471385 
L 157.42725 126.50074 
L 157.61325 126.578819 
L 157.79925 126.032065 
L 157.98525 125.074664 
L 158.17125 125.27705 
L 158.35725 125.087875 
L 158.54325 123.909739 
L 158.72925 124.683623 
L 158.91525 123.799815 
L 159.10125 124.307548 
L 159.28725 125.709364 
L 159.47325 123.944479 
L 159.65925 124.702707 
L 160.21725 128.887019 
L 160.40325 127.669787 
L 160.77525 128.99902 
L 160.96125 128.847645 
L 161.14725 128.233674 
L 161.33325 128.403765 
L 161.51925 130.956965 
L 161.70525 130.649963 
L 161.89125 130.78926 
L 162.07725 126.288906 
L 162.26325 126.743084 
L 162.44925 124.944162 
L 162.82125 126.194359 
L 163.19325 125.697914 
L 163.37925 125.5238 
L 163.56525 124.885335 
L 163.75125 125.228569 
L 163.93725 125.88565 
L 164.12325 123.16718 
L 164.30925 122.443715 
L 164.49525 122.872671 
L 164.68125 123.944235 
L 165.05325 122.405216 
L 165.23925 126.588442 
L 165.42525 125.975667 
L 165.61125 126.738674 
L 165.79725 130.282914 
L 165.98325 130.161974 
L 166.16925 129.266801 
L 166.35525 129.065715 
L 166.54125 129.554953 
L 166.72725 128.773225 
L 167.28525 131.936803 
L 167.47125 131.316256 
L 167.65725 132.295185 
L 167.84325 132.66298 
L 168.02925 132.182242 
L 168.21525 132.397715 
L 168.40125 131.992163 
L 168.58725 135.793969 
L 168.77325 132.458494 
L 168.95925 132.479214 
L 169.14525 133.060014 
L 169.33125 131.671868 
L 169.70325 131.304585 
L 169.88925 131.719087 
L 170.07525 132.434172 
L 170.26125 132.422324 
L 170.44725 133.136501 
L 170.81925 132.599705 
L 171.00525 127.352305 
L 171.19125 127.4405 
L 171.37725 126.652617 
L 171.56325 126.897468 
L 171.93525 125.154756 
L 172.12125 125.391366 
L 172.30725 132.227615 
L 172.49325 131.962804 
L 172.67925 133.39186 
L 173.23725 129.977906 
L 173.42325 129.505127 
L 173.60925 129.561223 
L 173.79525 129.31401 
L 173.98125 129.31246 
L 174.16725 130.613922 
L 174.35325 130.647858 
L 175.28325 125.459448 
L 175.46925 126.331595 
L 175.65525 126.547112 
L 176.02725 125.526861 
L 176.21325 125.817979 
L 176.39925 124.982996 
L 176.58525 125.862605 
L 176.77125 123.731742 
L 176.95725 123.787359 
L 177.14325 123.726141 
L 177.32925 124.309691 
L 177.51525 127.132154 
L 177.70125 131.653999 
L 177.88725 131.938372 
L 178.07325 130.418763 
L 178.25925 130.159893 
L 178.44525 130.763384 
L 178.63125 130.451159 
L 178.81725 130.622895 
L 179.18925 128.821524 
L 179.37525 129.28038 
L 179.56125 127.88714 
L 179.93325 129.57077 
L 180.30525 131.077154 
L 180.49125 133.104153 
L 180.86325 131.731733 
L 181.04925 131.372156 
L 181.42125 132.6202 
L 181.79325 132.091053 
L 181.97925 132.679654 
L 182.53725 131.772801 
L 182.72325 135.749293 
L 182.90925 135.714228 
L 183.09525 136.204113 
L 183.28125 137.649613 
L 183.46725 137.582189 
L 183.65325 137.686127 
L 183.83925 136.629552 
L 184.02525 137.210572 
L 184.21125 136.863282 
L 184.39725 137.080766 
L 184.58325 137.103852 
L 184.95525 138.32057 
L 185.14125 135.211129 
L 185.32725 135.280948 
L 185.51325 135.829868 
L 185.69925 133.523548 
L 186.07125 134.758936 
L 186.25725 138.519458 
L 186.44325 138.81383 
L 186.62925 139.693783 
L 186.81525 138.757949 
L 187.00125 138.686794 
L 187.18725 139.274802 
L 187.55925 138.023629 
L 187.74525 136.134321 
L 187.93125 136.335263 
L 188.11725 136.163409 
L 188.48925 134.076582 
L 188.67525 136.654692 
L 189.04725 136.363787 
L 189.23325 136.124293 
L 189.60525 137.886285 
L 189.79125 137.80785 
L 189.97725 128.3676 
L 190.16325 128.262023 
L 190.53525 127.593961 
L 190.72125 129.686449 
L 191.27925 126.409211 
L 191.46525 126.885113 
L 191.65125 126.405867 
L 191.83725 126.491561 
L 192.20925 125.642813 
L 192.39525 127.049871 
L 192.58125 126.33017 
L 192.76725 126.530404 
L 192.95325 126.324383 
L 193.13925 126.616648 
L 193.32525 125.887448 
L 193.69725 126.10736 
L 194.06925 127.903728 
L 194.25525 127.99143 
L 194.44125 126.671438 
L 194.62725 126.76798 
L 194.99925 126.361662 
L 195.18525 126.957801 
L 195.37125 126.293565 
L 195.55725 125.000411 
L 195.74325 125.015129 
L 195.92925 120.972831 
L 196.11525 120.603099 
L 196.30125 122.44847 
L 196.48725 119.970245 
L 196.67325 121.120786 
L 196.85925 118.406885 
L 197.04525 118.598481 
L 197.23125 118.166229 
L 197.41725 116.805275 
L 198.16125 120.964026 
L 198.53325 128.831196 
L 198.71925 124.004062 
L 198.90525 123.867624 
L 199.09125 124.340872 
L 199.27725 122.455572 
L 199.46325 122.287351 
L 199.64925 122.51947 
L 199.83525 121.9865 
L 200.02125 126.297105 
L 200.20725 126.727592 
L 200.39325 126.617012 
L 200.57925 128.990898 
L 200.76525 129.823695 
L 200.95125 131.340578 
L 201.13725 131.833446 
L 201.32325 133.712092 
L 202.25325 128.431015 
L 202.43925 127.881754 
L 202.62525 127.746025 
L 202.81125 127.859235 
L 203.18325 128.369906 
L 203.36925 128.233335 
L 203.55525 125.048304 
L 203.74125 125.542846 
L 203.92725 125.429937 
L 204.11325 124.895069 
L 204.29925 122.748378 
L 204.67125 124.120936 
L 204.85725 127.843944 
L 205.04325 128.69076 
L 205.22925 128.569877 
L 205.41525 129.596092 
L 205.60125 129.136447 
L 205.78725 129.140609 
L 205.97325 129.435997 
L 206.15925 130.352809 
L 206.34525 132.301504 
L 206.53125 131.4521 
L 206.71725 131.22829 
L 206.90325 131.59354 
L 207.64725 135.92113 
L 208.01925 137.366711 
L 208.76325 139.487498 
L 210.25125 141.956963 
L 210.99525 142.888093 
L 211.18125 142.913216 
L 211.92525 143.692837 
L 212.48325 144.48861 
L 214.15725 145.715743 
L 214.90125 146.118242 
L 216.20325 146.697612 
L 216.38925 146.602876 
L 217.50525 147.109861 
L 218.24925 147.388997 
L 220.85325 148.349143 
L 221.22525 148.372284 
L 221.78325 148.574515 
L 222.71325 148.762396 
L 223.08525 148.928721 
L 223.45725 148.954222 
L 224.01525 149.138402 
L 224.94525 149.468279 
L 225.87525 149.899548 
L 227.17725 150.305962 
L 227.36325 150.727246 
L 232.01325 151.473969 
L 232.38525 151.503739 
L 233.31525 151.74113 
L 235.73325 152.089991 
L 236.29125 152.191565 
L 236.66325 152.143997 
L 240.01125 152.849478 
L 240.75525 153.116548 
L 241.87125 153.266252 
L 243.73125 153.641977 
L 245.96325 154.034924 
L 246.33525 154.16571 
L 247.26525 154.326281 
L 247.63725 154.44955 
L 248.93925 154.595858 
L 251.17125 154.797252 
L 251.54325 154.882259 
L 255.07725 155.206035 
L 256.19325 155.34568 
L 257.86725 155.523809 
L 264.00525 155.957918 
L 264.37725 155.948774 
L 267.53925 156.189457 
L 268.65525 156.281156 
L 274.04925 156.688693 
L 275.53725 156.779889 
L 276.65325 156.7522 
L 278.69925 156.833871 
L 279.25725 156.841031 
L 289.85925 157.380346 
L 291.53325 157.492642 
L 297.11325 157.702761 
L 297.48525 157.643762 
L 301.57725 157.909649 
L 301.76325 156.645078 
L 302.69325 156.699764 
L 303.80925 156.811034 
L 304.36725 156.802329 
L 304.73925 156.729876 
L 318.68925 157.698312 
L 319.24725 157.66019 
L 322.59525 157.797209 
L 322.59525 157.797209 
" clip-path="url(#pf9ccf8ade0)" style="fill: none; stroke: #000000; stroke-width: 1.5; stroke-linecap: square"/>
   </g>
   <g id="line2d_15">
    <path d="M 43.78125 34.567221 
L 43.96725 34.427737 
L 44.15325 35.394359 
L 44.33925 34.508102 
L 44.89725 36.634871 
L 45.08325 36.911371 
L 45.26925 46.022587 
L 45.45525 46.889483 
L 45.64125 46.368261 
L 45.82725 46.387211 
L 46.01325 46.793544 
L 46.19925 45.772805 
L 46.38525 46.215374 
L 46.57125 45.884452 
L 47.12925 47.612752 
L 47.31525 48.319069 
L 47.50125 48.317701 
L 47.68725 49.23611 
L 47.87325 49.314649 
L 48.24525 48.820145 
L 48.43125 49.749067 
L 48.61725 48.549365 
L 48.80325 48.738173 
L 48.98925 48.642348 
L 49.17525 48.686907 
L 49.36125 48.147299 
L 49.54725 45.116959 
L 50.10525 46.337113 
L 50.29125 47.741072 
L 50.47725 47.61918 
L 51.22125 48.711837 
L 51.40725 48.679044 
L 51.59325 48.942305 
L 51.77925 48.993015 
L 51.96525 48.450432 
L 52.15125 47.509734 
L 52.33725 48.277055 
L 52.52325 51.899627 
L 53.08125 52.75269 
L 53.26725 53.125808 
L 53.45325 52.936743 
L 53.63925 52.928133 
L 53.82525 53.192504 
L 54.01125 53.188859 
L 54.19725 52.813999 
L 54.38325 52.904313 
L 54.56925 53.513908 
L 54.75525 53.429151 
L 54.94125 54.283831 
L 55.12725 54.06843 
L 55.31325 53.604193 
L 55.49925 54.106005 
L 56.05725 53.973294 
L 56.24325 54.671921 
L 56.42925 53.819719 
L 56.61525 53.520432 
L 56.80125 60.621041 
L 56.98725 60.915335 
L 57.17325 60.155686 
L 57.35925 61.74276 
L 57.73125 62.625229 
L 57.91725 62.032156 
L 58.10325 61.944358 
L 58.47525 62.119724 
L 58.66125 62.067991 
L 58.84725 65.750638 
L 59.03325 65.761955 
L 59.40525 66.107495 
L 59.59125 67.967788 
L 59.96325 67.847953 
L 60.14925 68.077579 
L 60.52125 66.554904 
L 60.70725 66.769282 
L 60.89325 65.124351 
L 61.07925 65.377013 
L 61.26525 61.7884 
L 61.45125 62.328869 
L 61.63725 62.327626 
L 61.82325 62.499922 
L 62.00925 62.888691 
L 62.19525 62.099157 
L 62.38125 61.897158 
L 62.56725 62.429544 
L 62.75325 62.623517 
L 63.12525 64.115102 
L 63.31125 63.676187 
L 63.49725 63.709085 
L 63.68325 63.504704 
L 63.86925 63.585883 
L 64.05525 64.147866 
L 64.24125 64.119828 
L 64.42725 64.739476 
L 64.61325 64.638275 
L 64.98525 65.029541 
L 65.17125 71.257793 
L 65.54325 70.76614 
L 65.72925 71.43405 
L 66.28725 71.854722 
L 66.65925 71.877326 
L 66.84525 71.134609 
L 67.03125 71.540043 
L 67.21725 72.391144 
L 67.40325 72.632145 
L 67.58925 72.030328 
L 67.96125 72.192771 
L 68.14725 73.09882 
L 68.51925 73.7138 
L 68.70525 75.767971 
L 68.89125 75.700071 
L 69.07725 78.977697 
L 69.26325 79.040422 
L 69.44925 78.764964 
L 69.63525 78.855413 
L 69.82125 77.9986 
L 70.19325 78.414058 
L 70.37925 78.795901 
L 70.75125 78.363052 
L 70.93725 78.655681 
L 71.12325 78.442269 
L 71.30925 78.43475 
L 71.49525 78.557589 
L 71.68125 77.439439 
L 72.05325 78.024677 
L 72.23925 78.912456 
L 72.42525 79.215225 
L 72.61125 78.965643 
L 73.16925 80.180824 
L 73.35525 78.939451 
L 73.54125 78.902622 
L 73.91325 78.312456 
L 74.09925 81.966645 
L 74.28525 82.553778 
L 74.47125 82.529346 
L 74.65725 81.801188 
L 75.02925 81.938865 
L 75.21525 82.388312 
L 75.40125 80.718394 
L 75.58725 82.220559 
L 75.77325 82.255476 
L 75.95925 82.017852 
L 76.14525 81.568453 
L 76.33125 82.451831 
L 76.51725 82.440036 
L 77.07525 79.874965 
L 77.44725 81.503528 
L 77.63325 81.872982 
L 77.81925 81.965449 
L 78.00525 81.063302 
L 78.19125 81.381521 
L 78.37725 95.103064 
L 78.56325 94.507666 
L 78.74925 95.256304 
L 78.93525 95.270653 
L 79.12125 95.921875 
L 79.30725 94.70337 
L 79.86525 96.866782 
L 80.23725 97.769431 
L 80.60925 99.356931 
L 80.79525 99.057075 
L 80.98125 99.041563 
L 81.16725 100.736769 
L 81.35325 100.761938 
L 81.72525 101.631731 
L 81.91125 101.101355 
L 82.09725 102.450456 
L 82.28325 102.198704 
L 82.46925 100.432766 
L 82.65525 101.02461 
L 82.84125 101.151161 
L 83.02725 99.736287 
L 83.21325 100.487934 
L 83.39925 113.344064 
L 83.58525 113.449718 
L 83.77125 113.335766 
L 83.95725 113.865564 
L 84.51525 113.648043 
L 84.70125 113.767032 
L 84.88725 113.713567 
L 85.07325 113.425023 
L 85.25925 112.313085 
L 85.44525 112.50935 
L 85.63125 112.446954 
L 85.81725 112.586233 
L 86.18925 112.545318 
L 86.37525 112.051671 
L 86.56125 112.170186 
L 86.74725 111.98202 
L 86.93325 112.032084 
L 87.11925 112.569946 
L 87.30525 113.880587 
L 88.04925 114.759512 
L 88.23525 115.360717 
L 88.42125 115.583269 
L 88.60725 115.616052 
L 88.79325 115.911455 
L 88.97925 115.713072 
L 89.16525 115.756201 
L 89.35125 116.387946 
L 89.53725 116.235729 
L 89.72325 116.265705 
L 89.90925 115.350079 
L 90.46725 116.259353 
L 90.65325 117.729261 
L 90.83925 117.824564 
L 91.02525 117.629811 
L 91.39725 118.629179 
L 91.58325 118.637032 
L 91.76925 118.789158 
L 91.95525 118.420239 
L 92.14125 118.627662 
L 92.32725 117.530375 
L 92.51325 118.09409 
L 92.69925 118.037794 
L 92.88525 118.45605 
L 93.07125 118.203867 
L 93.25725 117.077461 
L 93.44325 117.098042 
L 93.62925 117.690183 
L 93.81525 117.543395 
L 94.00125 117.58341 
L 94.18725 119.370929 
L 94.37325 118.96177 
L 94.55925 119.050779 
L 94.74525 119.940991 
L 94.93125 119.784891 
L 95.11725 119.459842 
L 95.48925 118.030222 
L 95.67525 118.461321 
L 95.86125 124.173249 
L 96.04725 124.151538 
L 96.41925 124.408863 
L 96.60525 124.363754 
L 96.79125 124.66759 
L 96.97725 124.611681 
L 97.16325 124.238672 
L 97.53525 124.730928 
L 97.90725 122.053286 
L 98.09325 122.881381 
L 98.27925 121.215888 
L 98.65125 121.298081 
L 98.83725 121.13558 
L 99.02325 121.329759 
L 99.20925 121.325603 
L 99.58125 121.52234 
L 99.76725 121.377724 
L 99.95325 121.460639 
L 100.32525 121.098 
L 100.51125 121.018993 
L 100.69725 121.236862 
L 100.88325 121.797062 
L 101.06925 121.430424 
L 101.62725 122.034518 
L 101.81325 121.377686 
L 101.99925 121.213315 
L 102.18525 121.6809 
L 102.37125 121.624713 
L 103.11525 123.431546 
L 103.48725 123.759364 
L 103.67325 122.624425 
L 104.04525 123.735406 
L 104.23125 123.69473 
L 104.60325 124.428962 
L 104.78925 125.262089 
L 104.97525 125.548036 
L 105.34725 125.284579 
L 105.53325 124.654829 
L 105.71925 124.921246 
L 105.90525 125.387664 
L 106.09125 124.716516 
L 106.27725 124.83516 
L 106.46325 123.851773 
L 106.64925 123.877568 
L 106.83525 124.13861 
L 107.20725 123.708874 
L 107.39325 123.983911 
L 107.57925 124.90111 
L 107.76525 124.471474 
L 107.95125 124.326925 
L 108.13725 125.024236 
L 108.32325 125.209193 
L 108.50925 125.070842 
L 108.69525 125.471707 
L 108.88125 125.513411 
L 109.25325 125.024556 
L 109.43925 125.454823 
L 109.62525 124.9904 
L 109.81125 125.44397 
L 109.99725 125.003458 
L 110.18325 125.321844 
L 110.36925 124.461535 
L 110.74125 124.243288 
L 110.92725 122.452439 
L 111.11325 122.414591 
L 111.29925 126.684396 
L 111.48525 126.724779 
L 111.85725 127.023679 
L 112.04325 125.886238 
L 112.41525 126.158161 
L 112.60125 127.164598 
L 112.78725 127.168443 
L 113.34525 127.862775 
L 113.53125 128.772847 
L 113.71725 128.757025 
L 114.64725 131.055487 
L 114.83325 131.263537 
L 115.01925 127.252229 
L 115.39125 127.494941 
L 115.57725 129.345143 
L 115.76325 129.530798 
L 115.94925 132.807472 
L 116.13525 132.713791 
L 116.32125 132.948884 
L 116.50725 132.822783 
L 116.69325 132.916173 
L 117.06525 132.856508 
L 117.25125 132.98491 
L 117.62325 132.869035 
L 117.80925 132.632474 
L 117.99525 133.39175 
L 118.18125 133.304879 
L 118.36725 132.925772 
L 118.55325 132.958044 
L 118.92525 132.57775 
L 119.11125 131.021101 
L 119.29725 131.031595 
L 119.66925 132.121248 
L 119.85525 131.836153 
L 120.04125 131.85386 
L 120.22725 132.058858 
L 120.41325 129.241436 
L 120.59925 129.234941 
L 120.78525 129.664079 
L 121.34325 129.472492 
L 121.71525 129.102971 
L 121.90125 128.313494 
L 122.08725 128.338275 
L 122.64525 129.007342 
L 122.83125 129.250079 
L 123.01725 131.976756 
L 123.20325 132.34646 
L 123.57525 132.191225 
L 123.94725 131.737043 
L 124.69125 132.55604 
L 124.87725 132.436076 
L 125.43525 132.627557 
L 125.80725 133.461544 
L 126.36525 133.37521 
L 126.55125 132.978845 
L 126.73725 133.548558 
L 126.92325 133.731349 
L 127.10925 134.559984 
L 127.29525 134.32358 
L 127.48125 134.620055 
L 127.85325 134.431754 
L 128.03925 162.718258 
L 132.31725 162.874613 
L 160.21725 163.18321 
L 160.77525 163.212702 
L 161.89125 163.21049 
L 162.26325 163.073946 
L 165.05325 163.152122 
L 166.16925 163.191459 
L 166.91325 163.201837 
L 167.09925 162.883119 
L 172.86525 163.01585 
L 174.16725 163.031944 
L 184.76925 163.170145 
L 184.95525 162.974648 
L 190.72125 163.099308 
L 191.27925 163.120226 
L 192.20925 163.093992 
L 192.39525 163.087619 
L 192.58125 163.365262 
L 195.37125 163.432666 
L 196.11525 163.406808 
L 196.85925 163.446392 
L 199.09125 163.515627 
L 204.29925 163.601768 
L 204.85725 163.566183 
L 221.03925 163.796913 
L 221.41125 163.881908 
L 225.68925 164.000634 
L 227.17725 164.051043 
L 231.45525 164.080263 
L 232.01325 164.041893 
L 234.61725 164.082205 
L 234.80325 162.522837 
L 235.91925 162.500898 
L 242.24325 162.925976 
L 243.73125 162.93435 
L 245.03325 162.94518 
L 245.40525 163.059635 
L 245.96325 162.987226 
L 246.70725 163.072859 
L 248.56725 163.164993 
L 249.31125 163.216559 
L 252.28725 163.28225 
L 252.47325 163.017397 
L 252.84525 163.037868 
L 253.21725 163.175382 
L 257.68125 163.242902 
L 258.23925 163.327283 
L 259.91325 163.38316 
L 261.58725 163.403155 
L 266.60925 163.406438 
L 267.35325 163.428675 
L 268.28325 163.473038 
L 268.84125 163.45863 
L 270.51525 163.565911 
L 273.67725 163.686198 
L 273.86325 163.929129 
L 275.90925 163.947271 
L 288.37125 164.353592 
L 290.23125 164.397438 
L 290.60325 164.497197 
L 297.85725 164.483079 
L 298.41525 164.504227 
L 300.08925 164.642742 
L 301.94925 164.704668 
L 302.13525 164.961858 
L 306.22725 165.036229 
L 306.41325 165.825302 
L 312.17925 165.833426 
L 322.59525 165.959652 
L 322.59525 165.959652 
" clip-path="url(#pf9ccf8ade0)" style="fill: none; stroke: #bfbf00; stroke-width: 1.5; stroke-linecap: square"/>
   </g>
   <g id="line2d_16">
    <path d="M 43.78125 34.866278 
L 43.96725 34.954277 
L 44.15325 30.724081 
L 44.52525 31.428591 
L 44.71125 32.177201 
L 44.89725 30.827626 
L 45.08325 31.560652 
L 45.26925 33.694634 
L 45.45525 33.677118 
L 45.64125 32.945517 
L 45.82725 32.846823 
L 46.01325 33.65943 
L 46.19925 32.897849 
L 46.94325 34.687974 
L 47.12925 35.616581 
L 47.50125 35.914003 
L 47.68725 35.403677 
L 47.87325 39.511837 
L 48.05925 40.534001 
L 48.24525 40.276489 
L 48.43125 40.416146 
L 48.61725 42.100757 
L 48.98925 41.645551 
L 49.17525 41.861851 
L 49.36125 41.601479 
L 49.54725 41.626304 
L 49.73325 42.039361 
L 49.91925 41.47292 
L 50.29125 42.565586 
L 50.47725 15.02592 
L 50.66325 14.859699 
L 50.84925 15.023643 
L 51.03525 14.76 
L 51.40725 15.298317 
L 51.59325 15.414306 
L 51.96525 17.87151 
L 52.15125 18.306694 
L 52.33725 18.40864 
L 52.70925 19.120975 
L 52.89525 17.707861 
L 53.08125 17.682903 
L 53.63925 19.580954 
L 53.82525 22.848326 
L 54.01125 23.64688 
L 54.19725 23.074231 
L 54.38325 23.897351 
L 54.56925 23.564267 
L 54.75525 22.886456 
L 54.94125 29.223858 
L 55.12725 29.733811 
L 55.49925 28.578649 
L 55.87125 29.218549 
L 56.05725 27.013577 
L 56.42925 26.894134 
L 56.80125 28.237644 
L 56.98725 29.016071 
L 57.17325 25.932122 
L 57.35925 27.586332 
L 57.54525 73.676358 
L 57.73125 71.788524 
L 58.10325 71.845902 
L 58.28925 71.714137 
L 58.47525 71.8089 
L 58.66125 67.958605 
L 58.84725 68.368123 
L 59.03325 70.154346 
L 59.40525 70.709489 
L 59.77725 71.011522 
L 60.33525 71.549064 
L 60.70725 72.852252 
L 60.89325 70.223155 
L 61.07925 71.459151 
L 61.63725 72.538788 
L 62.00925 76.045534 
L 62.19525 76.32918 
L 62.38125 75.984817 
L 62.56725 76.563541 
L 62.75325 78.134631 
L 62.93925 78.267572 
L 63.12525 78.108324 
L 63.31125 78.409486 
L 63.49725 79.545449 
L 63.68325 78.64997 
L 63.86925 78.981906 
L 64.24125 80.362638 
L 64.42725 79.872344 
L 64.61325 80.102668 
L 64.79925 79.425958 
L 65.17125 82.390531 
L 65.35725 82.391727 
L 65.54325 82.109295 
L 65.91525 83.263673 
L 66.10125 83.370355 
L 66.47325 82.996768 
L 66.65925 86.506469 
L 66.84525 86.604187 
L 67.03125 86.513194 
L 67.21725 87.897743 
L 67.58925 88.589051 
L 67.77525 88.585091 
L 67.96125 91.10391 
L 68.14725 91.62957 
L 68.33325 91.087953 
L 68.51925 87.180204 
L 68.70525 87.900412 
L 68.89125 87.703005 
L 69.07725 87.123955 
L 69.26325 87.135779 
L 69.44925 83.871306 
L 69.63525 85.193561 
L 69.82125 85.286419 
L 70.00725 85.250049 
L 70.19325 85.066082 
L 70.37925 85.713424 
L 70.56525 85.519901 
L 70.75125 85.133255 
L 70.93725 85.264226 
L 71.12325 84.44409 
L 71.30925 84.341856 
L 71.68125 85.803442 
L 71.86725 88.554336 
L 72.05325 89.042009 
L 72.23925 88.835791 
L 72.42525 89.406002 
L 72.61125 89.474782 
L 73.16925 91.037855 
L 73.35525 91.086471 
L 73.54125 90.5092 
L 73.91325 91.510089 
L 74.09925 91.267941 
L 74.47125 92.198489 
L 74.65725 91.782457 
L 74.84325 93.209528 
L 75.02925 93.429884 
L 75.21525 93.471841 
L 75.40125 94.163552 
L 75.58725 97.303391 
L 75.77325 97.682652 
L 75.95925 97.379328 
L 76.14525 97.477486 
L 76.33125 97.14985 
L 76.88925 90.473863 
L 77.07525 91.213385 
L 77.26125 91.476464 
L 77.63325 99.857198 
L 78.19125 100.809974 
L 78.37725 101.69351 
L 78.74925 101.327743 
L 78.93525 101.778519 
L 79.12125 106.222055 
L 79.30725 106.959463 
L 79.67925 106.920926 
L 79.86525 107.227823 
L 80.05125 109.579013 
L 80.23725 108.456061 
L 80.42325 108.57745 
L 80.60925 109.340065 
L 80.98125 109.538051 
L 81.35325 109.434775 
L 81.53925 110.29099 
L 82.09725 110.457704 
L 82.28325 110.27423 
L 82.46925 110.257278 
L 82.65525 110.912312 
L 82.84125 111.081423 
L 83.21325 112.41904 
L 83.39925 112.425512 
L 83.58525 111.040575 
L 83.77125 110.936447 
L 83.95725 111.687506 
L 84.14325 111.76569 
L 84.32925 111.988572 
L 84.51525 115.006243 
L 84.70125 114.414174 
L 85.25925 115.260741 
L 85.44525 115.569527 
L 85.63125 115.472101 
L 86.00325 112.71881 
L 86.18925 113.275929 
L 86.37525 116.792614 
L 86.93325 117.965406 
L 87.11925 117.754946 
L 87.86325 119.237218 
L 88.04925 119.114307 
L 88.23525 118.343385 
L 88.60725 119.886856 
L 88.79325 120.247491 
L 89.16525 120.245965 
L 89.53725 120.644592 
L 89.72325 120.838441 
L 89.90925 124.811298 
L 90.09525 124.680528 
L 90.28125 124.983972 
L 90.46725 124.984015 
L 90.65325 125.498641 
L 91.21125 125.188472 
L 91.39725 124.84818 
L 91.76925 124.868575 
L 91.95525 125.346749 
L 92.14125 125.161357 
L 92.32725 125.257961 
L 92.69925 124.993452 
L 92.88525 124.876491 
L 93.07125 126.125861 
L 94.18725 125.558578 
L 94.37325 124.87012 
L 94.55925 124.891979 
L 94.93125 125.336485 
L 95.11725 124.959559 
L 95.30325 126.819546 
L 95.48925 127.148651 
L 95.67525 126.513893 
L 95.86125 126.613238 
L 96.04725 128.852949 
L 96.23325 129.00507 
L 96.41925 86.594516 
L 96.60525 85.550819 
L 96.79125 85.442405 
L 96.97725 85.989111 
L 97.16325 84.28247 
L 97.34925 83.966595 
L 97.53525 81.80336 
L 97.90725 81.713132 
L 98.09325 80.8036 
L 98.27925 81.253181 
L 98.65125 83.201971 
L 98.83725 83.302129 
L 99.02325 83.959918 
L 99.20925 83.933706 
L 99.39525 83.196193 
L 99.58125 83.809652 
L 99.76725 79.960668 
L 99.95325 71.417041 
L 100.13925 72.098774 
L 100.51125 71.449805 
L 100.69725 77.399969 
L 100.88325 78.177525 
L 101.06925 78.220325 
L 101.25525 80.671377 
L 101.44125 80.426368 
L 101.81325 78.671761 
L 101.99925 78.570083 
L 102.18525 74.343522 
L 102.92925 75.929448 
L 103.11525 75.039843 
L 103.30125 74.996977 
L 103.48725 75.4657 
L 103.67325 74.692993 
L 104.04525 76.513979 
L 104.23125 77.839802 
L 104.41725 76.192872 
L 104.60325 77.921449 
L 105.16125 79.486483 
L 105.34725 74.547463 
L 105.53325 74.917463 
L 105.71925 74.805252 
L 106.27725 75.89369 
L 106.46325 75.886697 
L 106.64925 69.806233 
L 106.83525 71.09821 
L 107.20725 70.258846 
L 107.39325 71.228836 
L 107.57925 71.167077 
L 107.76525 70.725292 
L 107.95125 72.351024 
L 108.13725 71.436432 
L 108.32325 71.79456 
L 108.50925 65.734749 
L 108.69525 67.009307 
L 108.88125 43.960228 
L 109.62525 46.085447 
L 109.99725 47.90407 
L 110.18325 48.064456 
L 110.36925 49.71791 
L 110.55525 49.564048 
L 110.92725 48.487185 
L 111.11325 49.739539 
L 111.29925 50.073839 
L 111.48525 51.243656 
L 111.67125 48.364815 
L 111.85725 51.131292 
L 112.04325 51.421855 
L 112.22925 53.516529 
L 112.41525 53.52929 
L 112.97325 58.482458 
L 113.15925 58.513587 
L 113.34525 58.34131 
L 113.53125 60.315068 
L 113.71725 60.010117 
L 113.90325 59.033623 
L 114.08925 62.438115 
L 114.27525 62.948527 
L 114.46125 63.95505 
L 114.83325 66.995043 
L 115.01925 72.293942 
L 115.20525 71.612401 
L 115.39125 72.661915 
L 115.57725 83.964194 
L 115.76325 83.960482 
L 115.94925 78.833659 
L 116.13525 78.894538 
L 116.32125 79.159684 
L 116.50725 73.999743 
L 116.87925 74.466839 
L 117.25125 74.425485 
L 117.43725 78.099399 
L 117.62325 76.807871 
L 117.99525 77.481329 
L 118.73925 78.920788 
L 118.92525 79.983177 
L 119.66925 81.174892 
L 119.85525 81.887552 
L 120.04125 80.842525 
L 120.22725 78.065821 
L 120.59925 77.474192 
L 120.78525 77.837123 
L 120.97125 77.659202 
L 121.15725 78.277607 
L 121.52925 77.717623 
L 121.71525 104.408621 
L 122.08725 104.565243 
L 122.27325 104.27162 
L 122.45925 104.738051 
L 122.64525 103.469784 
L 123.01725 106.312848 
L 123.20325 106.938709 
L 123.38925 106.652537 
L 123.57525 101.949266 
L 124.13325 104.402083 
L 124.31925 104.676225 
L 124.50525 105.653739 
L 124.69125 106.026542 
L 124.87725 106.834471 
L 125.06325 108.609655 
L 125.62125 110.00169 
L 125.80725 112.733437 
L 125.99325 112.072324 
L 126.17925 113.376584 
L 126.36525 112.712253 
L 126.55125 113.934335 
L 126.73725 112.979603 
L 126.92325 115.561477 
L 127.10925 116.180972 
L 127.29525 115.791998 
L 127.48125 112.02832 
L 127.66725 112.291538 
L 127.85325 112.105868 
L 128.03925 113.330394 
L 128.22525 113.082463 
L 128.41125 151.10956 
L 131.57325 151.740563 
L 131.75925 151.396036 
L 132.50325 151.258775 
L 132.87525 151.086635 
L 133.06125 151.733128 
L 133.24725 151.39898 
L 133.43325 150.053774 
L 134.17725 150.999635 
L 134.36325 151.419035 
L 134.54925 151.518812 
L 134.73525 151.469437 
L 134.92125 155.006593 
L 138.08325 155.790364 
L 138.26925 155.677766 
L 140.68725 156.137605 
L 141.05925 156.295961 
L 143.10525 156.670281 
L 143.47725 156.858145 
L 144.40725 156.98786 
L 144.59325 156.79714 
L 144.96525 156.864204 
L 145.15125 156.794854 
L 146.63925 157.232376 
L 146.82525 156.604011 
L 159.10125 159.344261 
L 163.19325 159.963613 
L 163.56525 159.941902 
L 164.68125 160.11191 
L 170.26125 160.927974 
L 180.67725 162.166968 
L 194.99925 163.344673 
L 195.37125 163.246449 
L 207.64725 163.939985 
L 208.39125 163.956021 
L 220.10925 164.437264 
L 237.40725 164.991305 
L 239.82525 165.019351 
L 240.01125 164.343567 
L 244.84725 164.492177 
L 245.77725 164.512615 
L 248.19525 164.54342 
L 264.74925 165.03331 
L 272.93325 165.235558 
L 273.11925 141.031647 
L 274.23525 144.293628 
L 275.35125 146.94578 
L 276.65325 149.418415 
L 277.76925 151.130209 
L 279.07125 152.729767 
L 280.55925 154.18292 
L 282.04725 155.320779 
L 283.72125 156.320624 
L 285.39525 157.086985 
L 287.62725 157.882191 
L 290.41725 158.592762 
L 293.95125 159.21658 
L 297.67125 159.66989 
L 304.55325 160.216623 
L 312.55125 160.647389 
L 322.59525 161.025948 
L 322.59525 161.025948 
" clip-path="url(#pf9ccf8ade0)" style="fill: none; stroke: #0000ff; stroke-width: 1.5; stroke-linecap: square"/>
   </g>
   <g id="line2d_17">
    <path d="M 43.78125 34.596981 
L 48.98925 43.138035 
L 53.63925 50.241687 
L 58.84725 57.64341 
L 63.31125 63.586696 
L 68.70525 70.287095 
L 72.61125 74.827273 
L 77.07525 79.750786 
L 83.21325 86.022583 
L 88.04925 90.60579 
L 92.69925 94.754444 
L 98.65125 99.704365 
L 105.53325 104.948474 
L 112.60125 109.872111 
L 119.29725 114.154271 
L 126.92325 118.598026 
L 132.13125 121.393035 
L 139.94325 125.249414 
L 146.63925 128.278123 
L 152.96325 130.915481 
L 160.58925 133.84146 
L 167.47125 136.268257 
L 174.35325 138.497458 
L 183.83925 141.282357 
L 193.32525 143.775283 
L 204.29925 146.345474 
L 215.45925 148.643252 
L 227.17725 150.767467 
L 236.84925 152.328459 
L 248.75325 154.023614 
L 260.28525 155.473008 
L 275.16525 157.090232 
L 290.23125 158.500631 
L 308.27325 159.926892 
L 322.59525 160.88554 
L 322.59525 160.88554 
" clip-path="url(#pf9ccf8ade0)" style="fill: none; stroke: #ff0000; stroke-width: 1.5; stroke-linecap: square"/>
   </g>
   <g id="patch_3">
    <path d="M 43.78125 173.52 
L 43.78125 7.2 
" style="fill: none; stroke: #000000; stroke-width: 0.8; stroke-linejoin: miter; stroke-linecap: square"/>
   </g>
   <g id="patch_4">
    <path d="M 322.78125 173.52 
L 322.78125 7.2 
" style="fill: none; stroke: #000000; stroke-width: 0.8; stroke-linejoin: miter; stroke-linecap: square"/>
   </g>
   <g id="patch_5">
    <path d="M 43.78125 173.52 
L 322.78125 173.52 
" style="fill: none; stroke: #000000; stroke-width: 0.8; stroke-linejoin: miter; stroke-linecap: square"/>
   </g>
   <g id="patch_6">
    <path d="M 43.78125 7.2 
L 322.78125 7.2 
" style="fill: none; stroke: #000000; stroke-width: 0.8; stroke-linejoin: miter; stroke-linecap: square"/>
   </g>
   <g id="legend_1">
    <g id="patch_7">
     <path d="M 248.98125 73.9125 
L 315.78125 73.9125 
Q 317.78125 73.9125 317.78125 71.9125 
L 317.78125 14.2 
Q 317.78125 12.2 315.78125 12.2 
L 248.98125 12.2 
Q 246.98125 12.2 246.98125 14.2 
L 246.98125 71.9125 
Q 246.98125 73.9125 248.98125 73.9125 
z
" style="fill: #ffffff; opacity: 0.8; stroke: #cccccc; stroke-linejoin: miter"/>
    </g>
    <g id="line2d_18">
     <path d="M 250.98125 20.298438 
L 260.98125 20.298438 
L 270.98125 20.298438 
" style="fill: none; stroke: #000000; stroke-width: 1.5; stroke-linecap: square"/>
    </g>
    <g id="text_16">
     <!-- $\alpha=0.7$ -->
     <g transform="translate(278.98125 23.798438) scale(0.1 -0.1)">
      <defs>
       <path id="DejaVuSans-Oblique-3b1" d="M 2619 1628 
L 2622 2350 
Q 2625 3088 2069 3091 
Q 1653 3094 1394 2747 
Q 1069 2319 959 1747 
Q 825 1059 994 731 
Q 1169 397 1547 397 
Q 1966 397 2319 1063 
L 2619 1628 
z
M 2166 3578 
Q 3141 3594 3128 2584 
Q 3128 2584 3616 3500 
L 4128 3500 
L 3119 1603 
L 3109 919 
Q 3109 766 3194 638 
Q 3291 488 3391 488 
L 3669 488 
L 3575 0 
L 3228 0 
Q 2934 0 2722 263 
Q 2622 394 2619 669 
Q 2416 334 2066 50 
Q 1900 -81 1453 -78 
Q 722 -72 456 397 
Q 184 884 353 1747 
Q 534 2675 1009 3097 
Q 1544 3569 2166 3578 
z
" transform="scale(0.015625)"/>
       <path id="DejaVuSans-3d" d="M 678 2906 
L 4684 2906 
L 4684 2381 
L 678 2381 
L 678 2906 
z
M 678 1631 
L 4684 1631 
L 4684 1100 
L 678 1100 
L 678 1631 
z
" transform="scale(0.015625)"/>
       <path id="DejaVuSans-37" d="M 525 4666 
L 3525 4666 
L 3525 4397 
L 1831 0 
L 1172 0 
L 2766 4134 
L 525 4134 
L 525 4666 
z
" transform="scale(0.015625)"/>
      </defs>
      <use xlink:href="#DejaVuSans-Oblique-3b1" transform="translate(0 0.78125)"/>
      <use xlink:href="#DejaVuSans-3d" transform="translate(85.400391 0.78125)"/>
      <use xlink:href="#DejaVuSans-30" transform="translate(188.671875 0.78125)"/>
      <use xlink:href="#DejaVuSans-2e" transform="translate(252.294922 0.78125)"/>
      <use xlink:href="#DejaVuSans-37" transform="translate(276.332031 0.78125)"/>
     </g>
    </g>
    <g id="line2d_19">
     <path d="M 250.98125 34.976563 
L 260.98125 34.976563 
L 270.98125 34.976563 
" style="fill: none; stroke: #bfbf00; stroke-width: 1.5; stroke-linecap: square"/>
    </g>
    <g id="text_17">
     <!-- $\alpha=0.8$ -->
     <g transform="translate(278.98125 38.476563) scale(0.1 -0.1)">
      <use xlink:href="#DejaVuSans-Oblique-3b1" transform="translate(0 0.78125)"/>
      <use xlink:href="#DejaVuSans-3d" transform="translate(85.400391 0.78125)"/>
      <use xlink:href="#DejaVuSans-30" transform="translate(188.671875 0.78125)"/>
      <use xlink:href="#DejaVuSans-2e" transform="translate(252.294922 0.78125)"/>
      <use xlink:href="#DejaVuSans-38" transform="translate(281.457031 0.78125)"/>
     </g>
    </g>
    <g id="line2d_20">
     <path d="M 250.98125 49.654688 
L 260.98125 49.654688 
L 270.98125 49.654688 
" style="fill: none; stroke: #0000ff; stroke-width: 1.5; stroke-linecap: square"/>
    </g>
    <g id="text_18">
     <!-- $\alpha=0.9$ -->
     <g transform="translate(278.98125 53.154688) scale(0.1 -0.1)">
      <defs>
       <path id="DejaVuSans-39" d="M 703 97 
L 703 672 
Q 941 559 1184 500 
Q 1428 441 1663 441 
Q 2288 441 2617 861 
Q 2947 1281 2994 2138 
Q 2813 1869 2534 1725 
Q 2256 1581 1919 1581 
Q 1219 1581 811 2004 
Q 403 2428 403 3163 
Q 403 3881 828 4315 
Q 1253 4750 1959 4750 
Q 2769 4750 3195 4129 
Q 3622 3509 3622 2328 
Q 3622 1225 3098 567 
Q 2575 -91 1691 -91 
Q 1453 -91 1209 -44 
Q 966 3 703 97 
z
M 1959 2075 
Q 2384 2075 2632 2365 
Q 2881 2656 2881 3163 
Q 2881 3666 2632 3958 
Q 2384 4250 1959 4250 
Q 1534 4250 1286 3958 
Q 1038 3666 1038 3163 
Q 1038 2656 1286 2365 
Q 1534 2075 1959 2075 
z
" transform="scale(0.015625)"/>
      </defs>
      <use xlink:href="#DejaVuSans-Oblique-3b1" transform="translate(0 0.78125)"/>
      <use xlink:href="#DejaVuSans-3d" transform="translate(85.400391 0.78125)"/>
      <use xlink:href="#DejaVuSans-30" transform="translate(188.671875 0.78125)"/>
      <use xlink:href="#DejaVuSans-2e" transform="translate(252.294922 0.78125)"/>
      <use xlink:href="#DejaVuSans-39" transform="translate(284.082031 0.78125)"/>
     </g>
    </g>
    <g id="line2d_21">
     <path d="M 250.98125 64.332813 
L 260.98125 64.332813 
L 270.98125 64.332813 
" style="fill: none; stroke: #ff0000; stroke-width: 1.5; stroke-linecap: square"/>
    </g>
    <g id="text_19">
     <!-- $\alpha=1.0$ -->
     <g transform="translate(278.98125 67.832813) scale(0.1 -0.1)">
      <use xlink:href="#DejaVuSans-Oblique-3b1" transform="translate(0 0.78125)"/>
      <use xlink:href="#DejaVuSans-3d" transform="translate(85.400391 0.78125)"/>
      <use xlink:href="#DejaVuSans-31" transform="translate(188.671875 0.78125)"/>
      <use xlink:href="#DejaVuSans-2e" transform="translate(252.294922 0.78125)"/>
      <use xlink:href="#DejaVuSans-30" transform="translate(284.082031 0.78125)"/>
     </g>
    </g>
   </g>
  </g>
 </g>
 <defs>
  <clipPath id="pf9ccf8ade0">
   <rect x="43.78125" y="7.2" width="279" height="166.32"/>
  </clipPath>
 </defs>
</svg>
