<?xml version="1.0" encoding="utf-8" standalone="no"?>
<!DOCTYPE svg PUBLIC "-//W3C//DTD SVG 1.1//EN"
  "http://www.w3.org/Graphics/SVG/1.1/DTD/svg11.dtd">
<svg xmlns:xlink="http://www.w3.org/1999/xlink" width="336.34375pt" height="214.897344pt" viewBox="0 0 336.34375 214.897344" xmlns="http://www.w3.org/2000/svg" version="1.1">
 <metadata>
  <rdf:RDF xmlns:dc="http://purl.org/dc/elements/1.1/" xmlns:cc="http://creativecommons.org/ns#" xmlns:rdf="http://www.w3.org/1999/02/22-rdf-syntax-ns#">
   <cc:Work>
    <dc:type rdf:resource="http://purl.org/dc/dcmitype/StillImage"/>
    <dc:date>2025-04-19T21:41:47.274128</dc:date>
    <dc:format>image/svg+xml</dc:format>
    <dc:creator>
     <cc:Agent>
      <dc:title>Matplotlib v3.9.2, https://matplotlib.org/</dc:title>
     </cc:Agent>
    </dc:creator>
   </cc:Work>
  </rdf:RDF>
 </metadata>
 <defs>
  <style type="text/css">*{stroke-linejoin: round; stroke-linecap: butt}</style>
 </defs>
 <g id="figure_1">
  <g id="patch_1">
   <path d="M 0 214.897344 
L 336.34375 214.897344 
L 336.34375 0 
L 0 0 
z
" style="fill: #ffffff"/>
  </g>
  <g id="axes_1">
   <g id="patch_2">
    <path d="M 50.14375 177.319219 
L 329.14375 177.319219 
L 329.14375 10.999219 
L 50.14375 10.999219 
z
" style="fill: #ffffff"/>
   </g>
   <g id="matplotlib.axis_1">
    <g id="xtick_1">
     <g id="line2d_1">
      <defs>
       <path id="m6d171b337b" d="M 0 0 
L 0 3.5 
" style="stroke: #000000; stroke-width: 0.8"/>
      </defs>
      <g>
       <use xlink:href="#m6d171b337b" x="50.14375" y="177.319219" style="stroke: #000000; stroke-width: 0.8"/>
      </g>
     </g>
     <g id="text_1">
      <!-- 0 -->
      <g transform="translate(46.9625 191.917656) scale(0.1 -0.1)">
       <defs>
        <path id="DejaVuSans-30" d="M 2034 4250 
Q 1547 4250 1301 3770 
Q 1056 3291 1056 2328 
Q 1056 1369 1301 889 
Q 1547 409 2034 409 
Q 2525 409 2770 889 
Q 3016 1369 3016 2328 
Q 3016 3291 2770 3770 
Q 2525 4250 2034 4250 
z
M 2034 4750 
Q 2819 4750 3233 4129 
Q 3647 3509 3647 2328 
Q 3647 1150 3233 529 
Q 2819 -91 2034 -91 
Q 1250 -91 836 529 
Q 422 1150 422 2328 
Q 422 3509 836 4129 
Q 1250 4750 2034 4750 
z
" transform="scale(0.015625)"/>
       </defs>
       <use xlink:href="#DejaVuSans-30"/>
      </g>
     </g>
    </g>
    <g id="xtick_2">
     <g id="line2d_2">
      <g>
       <use xlink:href="#m6d171b337b" x="87.34375" y="177.319219" style="stroke: #000000; stroke-width: 0.8"/>
      </g>
     </g>
     <g id="text_2">
      <!-- 200 -->
      <g transform="translate(77.8 191.917656) scale(0.1 -0.1)">
       <defs>
        <path id="DejaVuSans-32" d="M 1228 531 
L 3431 531 
L 3431 0 
L 469 0 
L 469 531 
Q 828 903 1448 1529 
Q 2069 2156 2228 2338 
Q 2531 2678 2651 2914 
Q 2772 3150 2772 3378 
Q 2772 3750 2511 3984 
Q 2250 4219 1831 4219 
Q 1534 4219 1204 4116 
Q 875 4013 500 3803 
L 500 4441 
Q 881 4594 1212 4672 
Q 1544 4750 1819 4750 
Q 2544 4750 2975 4387 
Q 3406 4025 3406 3419 
Q 3406 3131 3298 2873 
Q 3191 2616 2906 2266 
Q 2828 2175 2409 1742 
Q 1991 1309 1228 531 
z
" transform="scale(0.015625)"/>
       </defs>
       <use xlink:href="#DejaVuSans-32"/>
       <use xlink:href="#DejaVuSans-30" x="63.623047"/>
       <use xlink:href="#DejaVuSans-30" x="127.246094"/>
      </g>
     </g>
    </g>
    <g id="xtick_3">
     <g id="line2d_3">
      <g>
       <use xlink:href="#m6d171b337b" x="124.54375" y="177.319219" style="stroke: #000000; stroke-width: 0.8"/>
      </g>
     </g>
     <g id="text_3">
      <!-- 400 -->
      <g transform="translate(115 191.917656) scale(0.1 -0.1)">
       <defs>
        <path id="DejaVuSans-34" d="M 2419 4116 
L 825 1625 
L 2419 1625 
L 2419 4116 
z
M 2253 4666 
L 3047 4666 
L 3047 1625 
L 3713 1625 
L 3713 1100 
L 3047 1100 
L 3047 0 
L 2419 0 
L 2419 1100 
L 313 1100 
L 313 1709 
L 2253 4666 
z
" transform="scale(0.015625)"/>
       </defs>
       <use xlink:href="#DejaVuSans-34"/>
       <use xlink:href="#DejaVuSans-30" x="63.623047"/>
       <use xlink:href="#DejaVuSans-30" x="127.246094"/>
      </g>
     </g>
    </g>
    <g id="xtick_4">
     <g id="line2d_4">
      <g>
       <use xlink:href="#m6d171b337b" x="161.74375" y="177.319219" style="stroke: #000000; stroke-width: 0.8"/>
      </g>
     </g>
     <g id="text_4">
      <!-- 600 -->
      <g transform="translate(152.2 191.917656) scale(0.1 -0.1)">
       <defs>
        <path id="DejaVuSans-36" d="M 2113 2584 
Q 1688 2584 1439 2293 
Q 1191 2003 1191 1497 
Q 1191 994 1439 701 
Q 1688 409 2113 409 
Q 2538 409 2786 701 
Q 3034 994 3034 1497 
Q 3034 2003 2786 2293 
Q 2538 2584 2113 2584 
z
M 3366 4563 
L 3366 3988 
Q 3128 4100 2886 4159 
Q 2644 4219 2406 4219 
Q 1781 4219 1451 3797 
Q 1122 3375 1075 2522 
Q 1259 2794 1537 2939 
Q 1816 3084 2150 3084 
Q 2853 3084 3261 2657 
Q 3669 2231 3669 1497 
Q 3669 778 3244 343 
Q 2819 -91 2113 -91 
Q 1303 -91 875 529 
Q 447 1150 447 2328 
Q 447 3434 972 4092 
Q 1497 4750 2381 4750 
Q 2619 4750 2861 4703 
Q 3103 4656 3366 4563 
z
" transform="scale(0.015625)"/>
       </defs>
       <use xlink:href="#DejaVuSans-36"/>
       <use xlink:href="#DejaVuSans-30" x="63.623047"/>
       <use xlink:href="#DejaVuSans-30" x="127.246094"/>
      </g>
     </g>
    </g>
    <g id="xtick_5">
     <g id="line2d_5">
      <g>
       <use xlink:href="#m6d171b337b" x="198.94375" y="177.319219" style="stroke: #000000; stroke-width: 0.8"/>
      </g>
     </g>
     <g id="text_5">
      <!-- 800 -->
      <g transform="translate(189.4 191.917656) scale(0.1 -0.1)">
       <defs>
        <path id="DejaVuSans-38" d="M 2034 2216 
Q 1584 2216 1326 1975 
Q 1069 1734 1069 1313 
Q 1069 891 1326 650 
Q 1584 409 2034 409 
Q 2484 409 2743 651 
Q 3003 894 3003 1313 
Q 3003 1734 2745 1975 
Q 2488 2216 2034 2216 
z
M 1403 2484 
Q 997 2584 770 2862 
Q 544 3141 544 3541 
Q 544 4100 942 4425 
Q 1341 4750 2034 4750 
Q 2731 4750 3128 4425 
Q 3525 4100 3525 3541 
Q 3525 3141 3298 2862 
Q 3072 2584 2669 2484 
Q 3125 2378 3379 2068 
Q 3634 1759 3634 1313 
Q 3634 634 3220 271 
Q 2806 -91 2034 -91 
Q 1263 -91 848 271 
Q 434 634 434 1313 
Q 434 1759 690 2068 
Q 947 2378 1403 2484 
z
M 1172 3481 
Q 1172 3119 1398 2916 
Q 1625 2713 2034 2713 
Q 2441 2713 2670 2916 
Q 2900 3119 2900 3481 
Q 2900 3844 2670 4047 
Q 2441 4250 2034 4250 
Q 1625 4250 1398 4047 
Q 1172 3844 1172 3481 
z
" transform="scale(0.015625)"/>
       </defs>
       <use xlink:href="#DejaVuSans-38"/>
       <use xlink:href="#DejaVuSans-30" x="63.623047"/>
       <use xlink:href="#DejaVuSans-30" x="127.246094"/>
      </g>
     </g>
    </g>
    <g id="xtick_6">
     <g id="line2d_6">
      <g>
       <use xlink:href="#m6d171b337b" x="236.14375" y="177.319219" style="stroke: #000000; stroke-width: 0.8"/>
      </g>
     </g>
     <g id="text_6">
      <!-- 1000 -->
      <g transform="translate(223.41875 191.917656) scale(0.1 -0.1)">
       <defs>
        <path id="DejaVuSans-31" d="M 794 531 
L 1825 531 
L 1825 4091 
L 703 3866 
L 703 4441 
L 1819 4666 
L 2450 4666 
L 2450 531 
L 3481 531 
L 3481 0 
L 794 0 
L 794 531 
z
" transform="scale(0.015625)"/>
       </defs>
       <use xlink:href="#DejaVuSans-31"/>
       <use xlink:href="#DejaVuSans-30" x="63.623047"/>
       <use xlink:href="#DejaVuSans-30" x="127.246094"/>
       <use xlink:href="#DejaVuSans-30" x="190.869141"/>
      </g>
     </g>
    </g>
    <g id="xtick_7">
     <g id="line2d_7">
      <g>
       <use xlink:href="#m6d171b337b" x="273.34375" y="177.319219" style="stroke: #000000; stroke-width: 0.8"/>
      </g>
     </g>
     <g id="text_7">
      <!-- 1200 -->
      <g transform="translate(260.61875 191.917656) scale(0.1 -0.1)">
       <use xlink:href="#DejaVuSans-31"/>
       <use xlink:href="#DejaVuSans-32" x="63.623047"/>
       <use xlink:href="#DejaVuSans-30" x="127.246094"/>
       <use xlink:href="#DejaVuSans-30" x="190.869141"/>
      </g>
     </g>
    </g>
    <g id="xtick_8">
     <g id="line2d_8">
      <g>
       <use xlink:href="#m6d171b337b" x="310.54375" y="177.319219" style="stroke: #000000; stroke-width: 0.8"/>
      </g>
     </g>
     <g id="text_8">
      <!-- 1400 -->
      <g transform="translate(297.81875 191.917656) scale(0.1 -0.1)">
       <use xlink:href="#DejaVuSans-31"/>
       <use xlink:href="#DejaVuSans-34" x="63.623047"/>
       <use xlink:href="#DejaVuSans-30" x="127.246094"/>
       <use xlink:href="#DejaVuSans-30" x="190.869141"/>
      </g>
     </g>
    </g>
    <g id="text_9">
     <!-- $Epochs$ -->
     <g transform="translate(171.69375 205.597344) scale(0.1 -0.1)">
      <defs>
       <path id="DejaVuSans-Oblique-45" d="M 1081 4666 
L 4031 4666 
L 3928 4134 
L 1606 4134 
L 1338 2753 
L 3566 2753 
L 3463 2222 
L 1234 2222 
L 909 531 
L 3284 531 
L 3181 0 
L 172 0 
L 1081 4666 
z
" transform="scale(0.015625)"/>
       <path id="DejaVuSans-Oblique-70" d="M 3175 2156 
Q 3175 2616 2975 2859 
Q 2775 3103 2400 3103 
Q 2144 3103 1911 2972 
Q 1678 2841 1497 2591 
Q 1319 2344 1212 1994 
Q 1106 1644 1106 1300 
Q 1106 863 1306 627 
Q 1506 391 1875 391 
Q 2147 391 2380 519 
Q 2613 647 2778 891 
Q 2956 1147 3065 1494 
Q 3175 1841 3175 2156 
z
M 1394 2969 
Q 1625 3272 1939 3428 
Q 2253 3584 2638 3584 
Q 3175 3584 3472 3232 
Q 3769 2881 3769 2247 
Q 3769 1728 3584 1258 
Q 3400 788 3053 416 
Q 2822 169 2531 39 
Q 2241 -91 1919 -91 
Q 1547 -91 1294 64 
Q 1041 219 916 525 
L 556 -1331 
L -19 -1331 
L 922 3500 
L 1497 3500 
L 1394 2969 
z
" transform="scale(0.015625)"/>
       <path id="DejaVuSans-Oblique-6f" d="M 1625 -91 
Q 1009 -91 651 289 
Q 294 669 294 1325 
Q 294 1706 417 2101 
Q 541 2497 738 2766 
Q 1047 3184 1428 3384 
Q 1809 3584 2291 3584 
Q 2888 3584 3255 3212 
Q 3622 2841 3622 2241 
Q 3622 1825 3500 1412 
Q 3378 1000 3181 728 
Q 2875 309 2494 109 
Q 2113 -91 1625 -91 
z
M 891 1344 
Q 891 869 1089 633 
Q 1288 397 1691 397 
Q 2269 397 2648 901 
Q 3028 1406 3028 2181 
Q 3028 2634 2825 2865 
Q 2622 3097 2228 3097 
Q 1903 3097 1650 2945 
Q 1397 2794 1197 2484 
Q 1050 2253 970 1956 
Q 891 1659 891 1344 
z
" transform="scale(0.015625)"/>
       <path id="DejaVuSans-Oblique-63" d="M 3431 3366 
L 3316 2797 
Q 3109 2947 2876 3022 
Q 2644 3097 2394 3097 
Q 2119 3097 1870 3000 
Q 1622 2903 1453 2725 
Q 1184 2453 1037 2087 
Q 891 1722 891 1331 
Q 891 859 1127 628 
Q 1363 397 1844 397 
Q 2081 397 2348 469 
Q 2616 541 2906 684 
L 2797 116 
Q 2547 13 2283 -39 
Q 2019 -91 1741 -91 
Q 1044 -91 669 257 
Q 294 606 294 1253 
Q 294 1797 489 2255 
Q 684 2713 1069 3078 
Q 1331 3328 1684 3456 
Q 2038 3584 2456 3584 
Q 2700 3584 2940 3529 
Q 3181 3475 3431 3366 
z
" transform="scale(0.015625)"/>
       <path id="DejaVuSans-Oblique-68" d="M 3566 2113 
L 3156 0 
L 2578 0 
L 2988 2091 
Q 3016 2238 3031 2350 
Q 3047 2463 3047 2528 
Q 3047 2791 2881 2937 
Q 2716 3084 2419 3084 
Q 1956 3084 1617 2771 
Q 1278 2459 1178 1941 
L 800 0 
L 225 0 
L 1172 4863 
L 1747 4863 
L 1375 2950 
Q 1594 3244 1934 3414 
Q 2275 3584 2650 3584 
Q 3113 3584 3367 3334 
Q 3622 3084 3622 2631 
Q 3622 2519 3608 2391 
Q 3594 2263 3566 2113 
z
" transform="scale(0.015625)"/>
       <path id="DejaVuSans-Oblique-73" d="M 3200 3397 
L 3091 2853 
Q 2863 2978 2609 3040 
Q 2356 3103 2088 3103 
Q 1634 3103 1373 2948 
Q 1113 2794 1113 2528 
Q 1113 2219 1719 2053 
Q 1766 2041 1788 2034 
L 1972 1978 
Q 2547 1819 2739 1644 
Q 2931 1469 2931 1166 
Q 2931 609 2489 259 
Q 2047 -91 1331 -91 
Q 1053 -91 747 -37 
Q 441 16 72 128 
L 184 722 
Q 500 559 806 475 
Q 1113 391 1394 391 
Q 1816 391 2080 572 
Q 2344 753 2344 1031 
Q 2344 1331 1650 1516 
L 1591 1531 
L 1394 1581 
Q 956 1697 753 1886 
Q 550 2075 550 2369 
Q 550 2928 970 3256 
Q 1391 3584 2113 3584 
Q 2397 3584 2667 3537 
Q 2938 3491 3200 3397 
z
" transform="scale(0.015625)"/>
      </defs>
      <use xlink:href="#DejaVuSans-Oblique-45" transform="translate(0 0.015625)"/>
      <use xlink:href="#DejaVuSans-Oblique-70" transform="translate(63.183594 0.015625)"/>
      <use xlink:href="#DejaVuSans-Oblique-6f" transform="translate(126.660156 0.015625)"/>
      <use xlink:href="#DejaVuSans-Oblique-63" transform="translate(187.841797 0.015625)"/>
      <use xlink:href="#DejaVuSans-Oblique-68" transform="translate(242.822266 0.015625)"/>
      <use xlink:href="#DejaVuSans-Oblique-73" transform="translate(306.201172 0.015625)"/>
     </g>
    </g>
   </g>
   <g id="matplotlib.axis_2">
    <g id="ytick_1">
     <g id="line2d_9">
      <defs>
       <path id="mbea2156075" d="M 0 0 
L -3.5 0 
" style="stroke: #000000; stroke-width: 0.8"/>
      </defs>
      <g>
       <use xlink:href="#mbea2156075" x="50.14375" y="177.319219" style="stroke: #000000; stroke-width: 0.8"/>
      </g>
     </g>
     <g id="text_10">
      <!-- 0.02 -->
      <g transform="translate(20.878125 181.118438) scale(0.1 -0.1)">
       <defs>
        <path id="DejaVuSans-2e" d="M 684 794 
L 1344 794 
L 1344 0 
L 684 0 
L 684 794 
z
" transform="scale(0.015625)"/>
       </defs>
       <use xlink:href="#DejaVuSans-30"/>
       <use xlink:href="#DejaVuSans-2e" x="63.623047"/>
       <use xlink:href="#DejaVuSans-30" x="95.410156"/>
       <use xlink:href="#DejaVuSans-32" x="159.033203"/>
      </g>
     </g>
    </g>
    <g id="ytick_2">
     <g id="line2d_10">
      <g>
       <use xlink:href="#mbea2156075" x="50.14375" y="156.529219" style="stroke: #000000; stroke-width: 0.8"/>
      </g>
     </g>
     <g id="text_11">
      <!-- 0.03 -->
      <g transform="translate(20.878125 160.328438) scale(0.1 -0.1)">
       <defs>
        <path id="DejaVuSans-33" d="M 2597 2516 
Q 3050 2419 3304 2112 
Q 3559 1806 3559 1356 
Q 3559 666 3084 287 
Q 2609 -91 1734 -91 
Q 1441 -91 1130 -33 
Q 819 25 488 141 
L 488 750 
Q 750 597 1062 519 
Q 1375 441 1716 441 
Q 2309 441 2620 675 
Q 2931 909 2931 1356 
Q 2931 1769 2642 2001 
Q 2353 2234 1838 2234 
L 1294 2234 
L 1294 2753 
L 1863 2753 
Q 2328 2753 2575 2939 
Q 2822 3125 2822 3475 
Q 2822 3834 2567 4026 
Q 2313 4219 1838 4219 
Q 1578 4219 1281 4162 
Q 984 4106 628 3988 
L 628 4550 
Q 988 4650 1302 4700 
Q 1616 4750 1894 4750 
Q 2613 4750 3031 4423 
Q 3450 4097 3450 3541 
Q 3450 3153 3228 2886 
Q 3006 2619 2597 2516 
z
" transform="scale(0.015625)"/>
       </defs>
       <use xlink:href="#DejaVuSans-30"/>
       <use xlink:href="#DejaVuSans-2e" x="63.623047"/>
       <use xlink:href="#DejaVuSans-30" x="95.410156"/>
       <use xlink:href="#DejaVuSans-33" x="159.033203"/>
      </g>
     </g>
    </g>
    <g id="ytick_3">
     <g id="line2d_11">
      <g>
       <use xlink:href="#mbea2156075" x="50.14375" y="135.739219" style="stroke: #000000; stroke-width: 0.8"/>
      </g>
     </g>
     <g id="text_12">
      <!-- 0.04 -->
      <g transform="translate(20.878125 139.538438) scale(0.1 -0.1)">
       <use xlink:href="#DejaVuSans-30"/>
       <use xlink:href="#DejaVuSans-2e" x="63.623047"/>
       <use xlink:href="#DejaVuSans-30" x="95.410156"/>
       <use xlink:href="#DejaVuSans-34" x="159.033203"/>
      </g>
     </g>
    </g>
    <g id="ytick_4">
     <g id="line2d_12">
      <g>
       <use xlink:href="#mbea2156075" x="50.14375" y="114.949219" style="stroke: #000000; stroke-width: 0.8"/>
      </g>
     </g>
     <g id="text_13">
      <!-- 0.05 -->
      <g transform="translate(20.878125 118.748437) scale(0.1 -0.1)">
       <defs>
        <path id="DejaVuSans-35" d="M 691 4666 
L 3169 4666 
L 3169 4134 
L 1269 4134 
L 1269 2991 
Q 1406 3038 1543 3061 
Q 1681 3084 1819 3084 
Q 2600 3084 3056 2656 
Q 3513 2228 3513 1497 
Q 3513 744 3044 326 
Q 2575 -91 1722 -91 
Q 1428 -91 1123 -41 
Q 819 9 494 109 
L 494 744 
Q 775 591 1075 516 
Q 1375 441 1709 441 
Q 2250 441 2565 725 
Q 2881 1009 2881 1497 
Q 2881 1984 2565 2268 
Q 2250 2553 1709 2553 
Q 1456 2553 1204 2497 
Q 953 2441 691 2322 
L 691 4666 
z
" transform="scale(0.015625)"/>
       </defs>
       <use xlink:href="#DejaVuSans-30"/>
       <use xlink:href="#DejaVuSans-2e" x="63.623047"/>
       <use xlink:href="#DejaVuSans-30" x="95.410156"/>
       <use xlink:href="#DejaVuSans-35" x="159.033203"/>
      </g>
     </g>
    </g>
    <g id="ytick_5">
     <g id="line2d_13">
      <g>
       <use xlink:href="#mbea2156075" x="50.14375" y="94.159219" style="stroke: #000000; stroke-width: 0.8"/>
      </g>
     </g>
     <g id="text_14">
      <!-- 0.06 -->
      <g transform="translate(20.878125 97.958438) scale(0.1 -0.1)">
       <use xlink:href="#DejaVuSans-30"/>
       <use xlink:href="#DejaVuSans-2e" x="63.623047"/>
       <use xlink:href="#DejaVuSans-30" x="95.410156"/>
       <use xlink:href="#DejaVuSans-36" x="159.033203"/>
      </g>
     </g>
    </g>
    <g id="ytick_6">
     <g id="line2d_14">
      <g>
       <use xlink:href="#mbea2156075" x="50.14375" y="73.369219" style="stroke: #000000; stroke-width: 0.8"/>
      </g>
     </g>
     <g id="text_15">
      <!-- 0.07 -->
      <g transform="translate(20.878125 77.168437) scale(0.1 -0.1)">
       <defs>
        <path id="DejaVuSans-37" d="M 525 4666 
L 3525 4666 
L 3525 4397 
L 1831 0 
L 1172 0 
L 2766 4134 
L 525 4134 
L 525 4666 
z
" transform="scale(0.015625)"/>
       </defs>
       <use xlink:href="#DejaVuSans-30"/>
       <use xlink:href="#DejaVuSans-2e" x="63.623047"/>
       <use xlink:href="#DejaVuSans-30" x="95.410156"/>
       <use xlink:href="#DejaVuSans-37" x="159.033203"/>
      </g>
     </g>
    </g>
    <g id="ytick_7">
     <g id="line2d_15">
      <g>
       <use xlink:href="#mbea2156075" x="50.14375" y="52.579219" style="stroke: #000000; stroke-width: 0.8"/>
      </g>
     </g>
     <g id="text_16">
      <!-- 0.08 -->
      <g transform="translate(20.878125 56.378437) scale(0.1 -0.1)">
       <use xlink:href="#DejaVuSans-30"/>
       <use xlink:href="#DejaVuSans-2e" x="63.623047"/>
       <use xlink:href="#DejaVuSans-30" x="95.410156"/>
       <use xlink:href="#DejaVuSans-38" x="159.033203"/>
      </g>
     </g>
    </g>
    <g id="ytick_8">
     <g id="line2d_16">
      <g>
       <use xlink:href="#mbea2156075" x="50.14375" y="31.789219" style="stroke: #000000; stroke-width: 0.8"/>
      </g>
     </g>
     <g id="text_17">
      <!-- 0.09 -->
      <g transform="translate(20.878125 35.588437) scale(0.1 -0.1)">
       <defs>
        <path id="DejaVuSans-39" d="M 703 97 
L 703 672 
Q 941 559 1184 500 
Q 1428 441 1663 441 
Q 2288 441 2617 861 
Q 2947 1281 2994 2138 
Q 2813 1869 2534 1725 
Q 2256 1581 1919 1581 
Q 1219 1581 811 2004 
Q 403 2428 403 3163 
Q 403 3881 828 4315 
Q 1253 4750 1959 4750 
Q 2769 4750 3195 4129 
Q 3622 3509 3622 2328 
Q 3622 1225 3098 567 
Q 2575 -91 1691 -91 
Q 1453 -91 1209 -44 
Q 966 3 703 97 
z
M 1959 2075 
Q 2384 2075 2632 2365 
Q 2881 2656 2881 3163 
Q 2881 3666 2632 3958 
Q 2384 4250 1959 4250 
Q 1534 4250 1286 3958 
Q 1038 3666 1038 3163 
Q 1038 2656 1286 2365 
Q 1534 2075 1959 2075 
z
" transform="scale(0.015625)"/>
       </defs>
       <use xlink:href="#DejaVuSans-30"/>
       <use xlink:href="#DejaVuSans-2e" x="63.623047"/>
       <use xlink:href="#DejaVuSans-30" x="95.410156"/>
       <use xlink:href="#DejaVuSans-39" x="159.033203"/>
      </g>
     </g>
    </g>
    <g id="ytick_9">
     <g id="line2d_17">
      <g>
       <use xlink:href="#mbea2156075" x="50.14375" y="10.999219" style="stroke: #000000; stroke-width: 0.8"/>
      </g>
     </g>
     <g id="text_18">
      <!-- 0.10 -->
      <g transform="translate(20.878125 14.798437) scale(0.1 -0.1)">
       <use xlink:href="#DejaVuSans-30"/>
       <use xlink:href="#DejaVuSans-2e" x="63.623047"/>
       <use xlink:href="#DejaVuSans-31" x="95.410156"/>
       <use xlink:href="#DejaVuSans-30" x="159.033203"/>
      </g>
     </g>
    </g>
    <g id="text_19">
     <!-- $Loss$ -->
     <g transform="translate(14.798438 105.259219) rotate(-90) scale(0.1 -0.1)">
      <defs>
       <path id="DejaVuSans-Oblique-4c" d="M 1075 4666 
L 1709 4666 
L 909 525 
L 3181 525 
L 3078 0 
L 172 0 
L 1075 4666 
z
" transform="scale(0.015625)"/>
      </defs>
      <use xlink:href="#DejaVuSans-Oblique-4c" transform="translate(0 0.09375)"/>
      <use xlink:href="#DejaVuSans-Oblique-6f" transform="translate(55.712891 0.09375)"/>
      <use xlink:href="#DejaVuSans-Oblique-73" transform="translate(116.894531 0.09375)"/>
      <use xlink:href="#DejaVuSans-Oblique-73" transform="translate(168.994141 0.09375)"/>
     </g>
    </g>
   </g>
   <g id="line2d_18">
    <path d="M 55.91932 -1 
L 57.58375 24.941949 
L 59.25775 47.680525 
L 60.93175 67.442264 
L 62.60575 84.514764 
L 64.27975 99.213034 
L 65.58175 109.21422 
L 66.32575 113.192253 
L 66.51175 114.412706 
L 66.69775 114.740996 
L 67.25575 118.259347 
L 67.81375 120.606146 
L 67.99975 115.748899 
L 68.37175 117.117621 
L 68.74375 118.487968 
L 69.48775 121.286936 
L 70.60375 125.400288 
L 70.78975 125.252663 
L 70.97575 125.943072 
L 71.16175 128.13533 
L 73.20775 131.271022 
L 73.57975 131.605942 
L 73.76575 131.698493 
L 73.95175 130.919862 
L 74.32375 131.438327 
L 74.50975 131.352351 
L 74.88175 131.872729 
L 75.06775 131.778451 
L 75.43975 132.248705 
L 75.62575 132.498322 
L 75.81175 132.554077 
L 75.99775 132.449816 
L 76.18375 132.630953 
L 76.36975 132.584871 
L 76.74175 132.808349 
L 77.29975 132.909281 
L 78.22975 132.757721 
L 78.78775 132.907956 
L 78.97375 132.971178 
L 79.34575 132.74591 
L 79.53175 132.803129 
L 80.27575 132.023414 
L 80.64775 131.94715 
L 80.83375 131.75225 
L 81.39175 131.793089 
L 81.57775 132.04307 
L 82.13575 131.31832 
L 82.32175 131.179811 
L 82.50775 131.785034 
L 82.69375 131.912182 
L 83.25175 131.679301 
L 83.62375 131.331525 
L 83.80975 130.403263 
L 84.36775 130.024221 
L 84.73975 129.603093 
L 85.29775 129.185481 
L 85.48375 129.348186 
L 85.66975 128.756616 
L 86.22775 128.511065 
L 86.59975 128.117416 
L 86.78575 128.654198 
L 86.97175 128.559997 
L 87.15775 128.87241 
L 87.71575 128.10054 
L 87.90175 128.72367 
L 88.08775 128.465417 
L 88.27375 128.476639 
L 88.45975 128.640327 
L 88.83175 127.800511 
L 89.38975 127.359564 
L 89.57575 128.014672 
L 89.76175 127.685562 
L 89.94775 128.207396 
L 90.50575 127.519821 
L 91.06375 126.549713 
L 91.24975 126.748462 
L 91.43575 126.394854 
L 91.80775 126.858742 
L 91.99375 126.690902 
L 92.17975 127.531229 
L 92.36575 127.445432 
L 92.55175 127.228134 
L 92.73775 126.648515 
L 92.92375 126.891727 
L 93.10975 126.204191 
L 93.29575 126.909602 
L 93.66775 126.460709 
L 94.03975 126.387241 
L 94.41175 125.861039 
L 94.59775 125.974354 
L 94.78375 125.568638 
L 94.96975 125.590494 
L 95.52775 125.332869 
L 95.71375 125.282442 
L 96.08575 124.992187 
L 96.27175 124.026114 
L 96.45775 124.194194 
L 96.64375 122.91862 
L 96.82975 122.890475 
L 97.01575 122.397025 
L 97.38775 122.383681 
L 97.57375 122.53342 
L 97.75975 122.11749 
L 98.68975 122.182632 
L 98.87575 122.241578 
L 99.06175 122.106554 
L 99.24775 120.902791 
L 99.43375 120.561512 
L 99.61975 120.624091 
L 99.80575 120.471316 
L 99.99175 120.566051 
L 100.36375 120.309192 
L 100.54975 120.422538 
L 100.73575 120.257255 
L 100.92175 120.948106 
L 101.10775 120.528062 
L 101.29375 120.957415 
L 101.66575 120.559468 
L 101.85175 119.948862 
L 102.03775 119.772913 
L 102.40975 119.971755 
L 102.59575 119.670309 
L 102.96775 119.57514 
L 103.15375 119.313518 
L 103.33975 119.410864 
L 103.71175 118.029053 
L 103.89775 118.526251 
L 104.08375 117.436864 
L 104.45575 116.597335 
L 104.64175 118.207867 
L 104.82775 118.310471 
L 105.01375 119.262387 
L 105.38575 119.251489 
L 105.57175 118.719502 
L 105.75775 118.60322 
L 105.94375 118.690683 
L 106.12975 118.252307 
L 106.31575 118.294703 
L 106.68775 118.540603 
L 106.87375 117.996021 
L 107.24575 117.674059 
L 107.43175 117.799363 
L 107.80375 118.403805 
L 108.54775 117.16306 
L 108.91975 116.688368 
L 109.10575 116.753247 
L 109.29175 116.35633 
L 109.47775 116.360226 
L 109.66375 116.512838 
L 110.03575 116.064464 
L 110.40775 116.292226 
L 110.59375 116.258342 
L 110.96575 115.500614 
L 111.15175 116.155769 
L 111.33775 115.966615 
L 111.52375 116.443932 
L 111.70975 115.975081 
L 111.89575 113.94466 
L 112.26775 114.395466 
L 112.63975 114.687998 
L 113.19775 114.342615 
L 113.38375 114.859175 
L 113.56975 114.250381 
L 113.75575 114.20481 
L 113.94175 114.558937 
L 114.49975 113.653197 
L 114.68575 112.563245 
L 114.87175 112.477261 
L 115.05775 113.036798 
L 115.24375 112.884471 
L 115.61575 113.122402 
L 115.80175 113.567004 
L 115.98775 113.268803 
L 116.17375 113.357583 
L 116.35975 112.54087 
L 117.10375 113.763956 
L 117.47575 113.944668 
L 118.21975 110.340217 
L 118.77775 111.323499 
L 118.96375 110.971966 
L 119.33575 111.22218 
L 119.70775 112.301181 
L 119.89375 112.244047 
L 120.07975 111.476344 
L 120.26575 111.747283 
L 120.45175 111.519615 
L 120.63775 110.674741 
L 120.82375 111.380176 
L 121.00975 111.617502 
L 121.38175 112.796544 
L 121.56775 112.74051 
L 121.75375 111.993663 
L 121.93975 113.560615 
L 122.12575 113.120613 
L 122.31175 113.522967 
L 122.49775 112.149537 
L 122.68375 111.833654 
L 123.24175 111.98409 
L 123.61375 113.551592 
L 123.79975 113.536915 
L 123.98575 113.368247 
L 124.17175 113.471301 
L 124.35775 116.066455 
L 124.54375 116.102546 
L 124.72975 116.339307 
L 124.91575 114.665677 
L 125.10175 114.665685 
L 125.47375 116.169407 
L 125.65975 116.02141 
L 125.84575 116.936855 
L 126.03175 116.68462 
L 126.40375 117.313318 
L 126.58975 127.000372 
L 126.96175 125.858235 
L 127.33375 125.801519 
L 127.51975 126.507349 
L 127.70575 126.338812 
L 127.89175 125.28341 
L 128.44975 124.462902 
L 128.63575 124.839396 
L 128.82175 124.563841 
L 129.00775 125.411317 
L 129.19375 125.124059 
L 129.37975 125.638427 
L 129.56575 127.128457 
L 129.75175 127.401015 
L 129.93775 127.195226 
L 130.12375 126.821458 
L 130.49575 124.61488 
L 130.68175 124.36582 
L 130.86775 123.596645 
L 131.05375 123.74822 
L 131.23975 123.672746 
L 131.42575 123.086111 
L 131.79775 122.81054 
L 131.98375 122.729807 
L 132.16975 122.976668 
L 132.54175 122.147346 
L 132.72775 123.170065 
L 132.91375 119.949613 
L 133.09975 119.56034 
L 133.28575 119.831496 
L 133.65775 118.242378 
L 133.84375 118.47718 
L 134.02975 118.985484 
L 134.58775 118.405756 
L 134.95975 119.532334 
L 135.14575 119.575806 
L 135.33175 123.969298 
L 135.51775 123.711083 
L 135.70375 123.718883 
L 135.88975 124.277025 
L 136.07575 123.021309 
L 136.26175 119.593341 
L 136.44775 119.128354 
L 136.63375 119.361839 
L 136.81975 120.816288 
L 137.00575 120.859799 
L 137.19175 121.260813 
L 137.37775 121.285178 
L 137.56375 121.53557 
L 137.74975 120.834109 
L 138.12175 121.008485 
L 138.30775 121.648282 
L 138.49375 121.746401 
L 138.67975 121.586028 
L 138.86575 120.687429 
L 139.05175 121.026964 
L 139.23775 121.881031 
L 139.42375 121.966209 
L 139.60975 121.230678 
L 139.79575 138.179097 
L 140.35375 137.805818 
L 140.91175 137.927358 
L 141.09775 137.993453 
L 141.28375 137.360874 
L 141.46975 137.196489 
L 141.65575 137.294756 
L 141.84175 137.159771 
L 142.02775 136.084557 
L 142.58575 135.331453 
L 142.95775 134.690494 
L 143.14375 134.600065 
L 143.32975 133.870877 
L 143.51575 133.767963 
L 144.07375 132.991934 
L 144.25975 132.93906 
L 144.44575 132.66675 
L 144.63175 132.920317 
L 145.00375 132.905493 
L 145.93375 131.84896 
L 146.11975 130.797245 
L 147.23575 129.861082 
L 147.42175 129.580749 
L 147.79375 128.590744 
L 148.35175 128.503583 
L 148.53775 125.044829 
L 148.72375 124.896151 
L 149.09575 125.032871 
L 149.28175 124.494176 
L 149.65375 124.228689 
L 149.83975 124.181895 
L 150.02575 124.281958 
L 150.21175 122.952542 
L 150.39775 123.148898 
L 150.58375 123.162274 
L 150.76975 122.961705 
L 150.95575 123.172582 
L 151.14175 123.187545 
L 151.32775 122.940158 
L 151.51375 123.165279 
L 151.69975 123.155071 
L 152.07175 122.976156 
L 152.25775 122.97539 
L 152.44375 123.137002 
L 152.62975 123.110817 
L 153.18775 123.535368 
L 153.37375 123.208394 
L 153.55975 121.339935 
L 154.11775 121.454249 
L 154.67575 122.089422 
L 155.23375 121.36073 
L 155.41975 121.762968 
L 155.60575 121.884702 
L 155.97775 122.574128 
L 156.16375 122.555044 
L 156.34975 122.757023 
L 156.53575 122.704149 
L 157.65175 124.320063 
L 158.02375 124.345064 
L 158.20975 124.785864 
L 158.39575 124.392943 
L 158.58175 124.348247 
L 158.76775 124.702474 
L 158.95375 124.788288 
L 159.32575 124.332858 
L 159.51175 124.52713 
L 159.69775 121.747788 
L 159.88375 121.345681 
L 160.06975 121.853738 
L 160.25575 120.503472 
L 160.62775 122.203891 
L 160.99975 121.349964 
L 161.18575 121.23369 
L 161.37175 121.625434 
L 161.55775 121.673917 
L 161.92975 118.772329 
L 162.11575 118.872773 
L 162.30175 119.353753 
L 162.48775 124.041991 
L 162.67375 124.351538 
L 162.85975 124.921174 
L 163.04575 124.483225 
L 163.23175 124.804443 
L 163.41775 125.742859 
L 163.60375 125.739816 
L 163.78975 126.235465 
L 163.97575 119.561858 
L 164.16175 116.978902 
L 164.53375 118.509089 
L 164.71975 118.787447 
L 164.90575 119.296208 
L 165.09175 119.438428 
L 165.27775 118.698676 
L 165.46375 119.064985 
L 165.64975 118.600137 
L 165.83575 118.772151 
L 166.02175 119.154485 
L 166.20775 119.238246 
L 166.39375 120.642594 
L 166.57975 120.541639 
L 166.95175 120.982996 
L 167.13775 120.521952 
L 167.50975 120.524554 
L 167.69575 120.302624 
L 167.88175 120.700928 
L 168.06775 121.611416 
L 168.25375 121.778148 
L 168.43975 121.494375 
L 169.18375 121.63558 
L 169.55575 120.870967 
L 169.74175 120.601189 
L 169.92775 120.584979 
L 170.11375 119.999575 
L 170.29975 120.129209 
L 170.67175 118.871657 
L 170.85775 118.616843 
L 171.04375 118.793349 
L 171.41575 119.995881 
L 171.60175 120.044565 
L 171.78775 120.262064 
L 171.97375 119.888196 
L 172.15975 119.807177 
L 172.34575 120.158144 
L 172.53175 120.196264 
L 172.71775 120.598285 
L 172.90375 119.56422 
L 173.46175 120.501002 
L 173.83375 119.75469 
L 174.01975 120.205558 
L 174.20575 121.05971 
L 174.39175 120.122448 
L 174.57775 119.902632 
L 174.94975 119.811638 
L 175.13575 120.624045 
L 175.32175 120.09342 
L 175.50775 135.08927 
L 175.69375 132.565989 
L 176.25175 131.424448 
L 176.43775 130.850847 
L 176.62375 130.85602 
L 176.80975 130.384721 
L 176.99575 129.065126 
L 177.18175 129.763164 
L 177.36775 129.54276 
L 177.73975 127.347242 
L 178.11175 126.930668 
L 178.29775 131.26684 
L 178.48375 131.264547 
L 178.66975 130.106006 
L 179.22775 128.889751 
L 179.41375 127.914539 
L 179.59975 127.79804 
L 180.15775 124.507923 
L 181.27375 122.150723 
L 181.45975 121.891324 
L 181.64575 121.368296 
L 182.01775 119.423255 
L 182.20375 119.26701 
L 182.38975 118.847943 
L 182.57575 118.130991 
L 182.76175 117.900481 
L 183.31975 116.5027 
L 183.50575 116.50497 
L 183.69175 117.883705 
L 184.80775 114.521119 
L 184.99375 114.586556 
L 185.17975 114.15072 
L 185.36575 114.037397 
L 186.10975 112.680355 
L 186.29575 112.527541 
L 186.48175 112.78268 
L 186.66775 112.336118 
L 186.85375 114.906357 
L 188.34175 112.386019 
L 188.52775 112.34717 
L 188.71375 112.575133 
L 188.89975 112.239184 
L 189.08575 112.201435 
L 189.27175 111.699706 
L 189.82975 111.166959 
L 190.57375 108.89802 
L 190.75975 108.633943 
L 190.94575 108.124825 
L 191.13175 107.953516 
L 191.31775 107.364325 
L 191.87575 106.926723 
L 192.24775 106.138427 
L 192.43375 105.762382 
L 192.99175 103.918791 
L 193.73575 102.818429 
L 193.92175 102.788186 
L 194.10775 103.041219 
L 194.29375 102.546259 
L 194.47975 101.569366 
L 194.85175 101.469597 
L 195.22375 101.455796 
L 195.40975 99.554947 
L 195.59575 99.81289 
L 195.78175 100.780225 
L 195.96775 100.52404 
L 196.15375 100.556917 
L 196.33975 100.788373 
L 196.71175 99.59807 
L 196.89775 99.744936 
L 197.08375 99.240853 
L 197.26975 99.303502 
L 197.45575 97.781424 
L 197.64175 97.960873 
L 197.82775 98.473026 
L 198.01375 93.904392 
L 198.19975 93.245752 
L 198.38575 93.25637 
L 198.57175 93.48757 
L 198.75775 93.517326 
L 198.94375 93.700167 
L 199.31575 93.450519 
L 199.50175 93.665942 
L 199.87375 94.487566 
L 200.05975 94.151554 
L 200.61775 94.636384 
L 200.80375 94.302633 
L 200.98975 95.27951 
L 201.17575 93.447243 
L 201.36175 94.450561 
L 201.54775 94.223078 
L 201.73375 93.750718 
L 201.91975 93.64775 
L 202.10575 92.682281 
L 202.47775 92.824353 
L 202.66375 92.18032 
L 202.84975 92.328812 
L 203.03575 91.845424 
L 203.22175 93.441426 
L 203.40775 93.462306 
L 203.59375 94.891508 
L 203.77975 94.657721 
L 204.15175 95.151619 
L 204.33775 94.898788 
L 204.70975 95.376445 
L 204.89575 95.322146 
L 205.08175 100.057659 
L 205.26775 99.694912 
L 205.45375 98.773581 
L 205.63975 98.50145 
L 205.82575 96.965408 
L 206.01175 96.655287 
L 206.38375 98.111511 
L 206.75575 97.517897 
L 206.94175 97.457293 
L 207.12775 97.275706 
L 207.31375 95.778079 
L 208.05775 95.578083 
L 208.24375 95.7608 
L 208.42975 96.147843 
L 208.80175 96.19085 
L 208.98775 96.421981 
L 209.17375 96.135234 
L 209.35975 96.231046 
L 209.54575 96.178799 
L 209.73175 96.354012 
L 209.91775 96.3716 
L 210.47575 96.994451 
L 210.66175 97.416338 
L 210.84775 97.210409 
L 211.03375 97.224474 
L 211.21975 96.996349 
L 211.40575 97.261649 
L 211.59175 97.21714 
L 211.77775 95.835717 
L 212.14975 95.856117 
L 212.33575 99.865245 
L 212.70775 99.792846 
L 213.07975 100.055576 
L 213.26575 100.153463 
L 213.45175 100.442324 
L 213.82375 100.373402 
L 214.19575 100.817687 
L 214.75375 101.068652 
L 214.93975 100.703001 
L 215.12575 100.970223 
L 215.68375 100.711056 
L 216.05575 100.197903 
L 216.24175 100.162765 
L 216.42775 99.079876 
L 216.79975 98.332898 
L 216.98575 98.646596 
L 217.17175 98.516033 
L 217.35775 98.151218 
L 217.72975 98.082367 
L 217.91575 99.731073 
L 218.10175 99.94896 
L 218.28775 100.645766 
L 218.47375 100.477478 
L 218.65975 100.13754 
L 219.03175 100.717987 
L 219.58975 99.07203 
L 219.77575 98.881491 
L 219.96175 98.129517 
L 220.14775 97.990613 
L 220.51975 98.433411 
L 220.70575 98.05347 
L 220.89175 98.144635 
L 221.07775 97.895157 
L 221.26375 97.177896 
L 221.44975 97.124759 
L 221.63575 97.267474 
L 222.00775 98.420601 
L 222.37975 96.617113 
L 222.56575 97.035429 
L 222.75175 96.860364 
L 222.93775 96.233478 
L 223.12375 96.624625 
L 223.30975 96.685152 
L 223.49575 97.402893 
L 223.68175 97.634472 
L 224.05375 97.314586 
L 224.23975 97.366771 
L 224.61175 97.794195 
L 224.79775 97.746355 
L 224.98375 96.661228 
L 225.16975 96.570644 
L 225.35575 96.660399 
L 225.54175 96.085737 
L 225.72775 94.896821 
L 226.47175 95.541868 
L 226.65775 95.221269 
L 226.84375 95.423023 
L 227.02975 95.429312 
L 227.21575 95.868408 
L 227.40175 95.2055 
L 227.58775 95.724369 
L 227.95975 95.944749 
L 228.14575 95.945756 
L 228.33175 95.741988 
L 228.51775 96.197689 
L 228.70375 95.997724 
L 228.88975 96.244793 
L 229.07575 96.065151 
L 229.26175 96.112488 
L 229.44775 95.768483 
L 229.63375 96.609554 
L 229.81975 96.29505 
L 230.19175 97.113536 
L 230.37775 95.51329 
L 230.56375 96.356382 
L 230.74975 96.62547 
L 230.93575 96.530409 
L 231.12175 96.777827 
L 231.30775 96.035643 
L 231.49375 96.036898 
L 231.67975 96.479417 
L 231.86575 96.602266 
L 232.23775 95.375624 
L 232.42375 95.277582 
L 232.79575 94.516198 
L 232.98175 94.73551 
L 233.16775 98.367525 
L 233.53975 98.309168 
L 233.91175 97.461584 
L 234.09775 97.575898 
L 234.84175 95.55316 
L 235.02775 95.931637 
L 235.21375 95.668148 
L 235.39975 96.369796 
L 235.58575 96.414685 
L 236.14375 97.587856 
L 236.51575 98.266129 
L 236.70175 96.406661 
L 236.88775 96.81034 
L 237.07375 96.72122 
L 237.25975 96.373451 
L 237.44575 95.072668 
L 237.63175 95.14317 
L 237.81775 93.981399 
L 238.00375 93.870105 
L 238.18975 98.911316 
L 238.37575 99.47629 
L 238.56175 98.877324 
L 238.74775 98.989214 
L 239.11975 98.05464 
L 239.30575 99.104737 
L 239.49175 98.122191 
L 239.67775 98.685189 
L 240.04975 97.855751 
L 240.23575 97.873627 
L 240.42175 98.116839 
L 240.60775 97.699398 
L 240.79375 98.08105 
L 240.97975 98.730326 
L 241.16575 97.204508 
L 241.35175 97.64348 
L 241.53775 96.693346 
L 241.72375 96.415003 
L 241.90975 96.438772 
L 242.09575 96.883235 
L 242.28175 95.791478 
L 242.46775 95.910083 
L 242.65375 94.600447 
L 242.83975 98.269258 
L 243.02575 98.479756 
L 243.21175 98.150808 
L 243.39775 98.530044 
L 243.76975 97.538537 
L 243.95575 98.058334 
L 244.14175 97.387783 
L 244.32775 96.211614 
L 244.51375 96.322645 
L 244.69975 96.077171 
L 244.88575 95.574652 
L 245.07175 95.62202 
L 245.25775 96.265759 
L 245.44375 96.500584 
L 245.81575 94.68908 
L 246.18775 94.053605 
L 246.37375 93.959334 
L 246.55975 91.168095 
L 246.74575 90.556653 
L 246.93175 90.731292 
L 247.11775 91.14366 
L 247.30375 90.99509 
L 247.48975 92.235634 
L 247.67575 92.32171 
L 247.86175 91.831297 
L 248.23375 93.069416 
L 248.60575 91.338622 
L 248.79175 91.557833 
L 248.97775 92.589916 
L 249.16375 94.672544 
L 249.34975 95.203247 
L 249.53575 96.696297 
L 249.72175 94.661221 
L 249.90775 94.87347 
L 250.09375 95.447629 
L 250.27975 95.073745 
L 250.46575 94.02704 
L 250.65175 94.839516 
L 250.83775 94.680669 
L 251.20975 95.490829 
L 251.39575 94.54257 
L 251.58175 94.21713 
L 251.76775 93.59242 
L 251.95375 91.635731 
L 252.32575 91.211319 
L 252.51175 88.73419 
L 252.88375 87.787595 
L 253.06975 89.202151 
L 253.25575 87.547426 
L 253.44175 91.316495 
L 253.81375 91.302693 
L 253.99975 90.821032 
L 254.18575 90.842973 
L 254.37175 91.04853 
L 254.55775 95.367275 
L 254.74375 94.834776 
L 255.11575 96.338003 
L 255.30175 95.965753 
L 255.48775 95.152216 
L 255.85975 91.153783 
L 256.04575 91.741239 
L 256.23175 91.836587 
L 256.60375 94.313972 
L 256.97575 95.444019 
L 257.16175 97.130815 
L 257.34775 97.124937 
L 257.53375 96.861495 
L 257.71975 96.201445 
L 257.90575 98.147865 
L 258.09175 96.620598 
L 258.27775 96.915941 
L 258.46375 96.943962 
L 258.64975 97.764532 
L 258.83575 97.961291 
L 259.02175 97.289043 
L 259.20775 97.80077 
L 259.39375 95.037104 
L 259.57975 95.223585 
L 259.76575 94.830679 
L 259.95175 97.815377 
L 260.13775 98.033434 
L 260.32375 97.774469 
L 260.50975 96.22784 
L 260.69575 95.792996 
L 260.88175 96.504479 
L 261.06775 96.058971 
L 261.25375 96.205356 
L 261.62575 96.849808 
L 261.81175 96.277275 
L 262.18375 97.49752 
L 262.55575 97.91043 
L 262.74175 97.879156 
L 263.11375 98.377927 
L 263.29975 98.249702 
L 263.67175 99.657195 
L 263.85775 98.821855 
L 264.04375 100.692011 
L 264.22975 100.942635 
L 264.41575 100.931583 
L 264.78775 102.054746 
L 265.15975 100.759028 
L 265.34575 101.062092 
L 265.53175 100.711033 
L 265.71775 100.814868 
L 265.90375 101.219112 
L 266.08975 100.854142 
L 266.27575 100.02661 
L 266.46175 100.886601 
L 266.83375 100.287093 
L 267.20575 99.146954 
L 267.39175 96.17069 
L 267.57775 95.126077 
L 267.76375 95.090241 
L 268.13575 95.330441 
L 268.50775 96.376023 
L 268.69375 97.036785 
L 268.87975 96.741581 
L 269.06575 92.423602 
L 269.43775 93.94815 
L 269.80975 93.808774 
L 269.99575 94.843629 
L 270.18175 94.544614 
L 270.55375 96.169095 
L 270.73975 96.236406 
L 270.92575 95.709785 
L 271.11175 96.153001 
L 271.29775 97.763742 
L 271.48375 98.043394 
L 271.66975 97.921443 
L 271.85575 99.418614 
L 272.04175 99.966936 
L 272.22775 99.846139 
L 272.41375 99.958865 
L 272.59975 99.084198 
L 272.78575 98.937486 
L 272.97175 100.194612 
L 273.15775 98.574368 
L 273.34375 98.507692 
L 273.90175 102.274685 
L 274.08775 102.124395 
L 274.27375 103.460488 
L 274.45975 102.612075 
L 274.64575 102.595261 
L 275.20375 103.5042 
L 275.57575 103.078464 
L 275.76175 104.374771 
L 275.94775 104.365175 
L 276.13375 104.601587 
L 276.50575 104.092981 
L 276.69175 102.965172 
L 276.87775 105.760755 
L 277.06375 105.685003 
L 277.24975 106.37971 
L 277.43575 106.390135 
L 277.62175 106.247343 
L 277.80775 105.25953 
L 278.17975 104.355346 
L 278.36575 105.710948 
L 278.55175 105.224089 
L 278.73775 106.618191 
L 278.92375 106.179939 
L 279.10975 106.87199 
L 279.29575 107.110881 
L 279.66775 105.976419 
L 279.85375 106.54535 
L 280.41175 105.523785 
L 280.59775 103.885155 
L 280.78375 104.121242 
L 280.96975 103.959405 
L 281.15575 104.355207 
L 281.34175 104.374004 
L 281.52775 103.986551 
L 281.71375 102.655167 
L 281.89975 103.238705 
L 282.08575 103.338126 
L 282.27175 103.304521 
L 282.45775 103.481484 
L 282.64375 102.514226 
L 282.82975 102.593394 
L 283.01575 105.043177 
L 283.20175 104.725544 
L 283.38775 105.021669 
L 283.57375 104.695494 
L 283.75975 105.413467 
L 283.94575 105.222053 
L 284.13175 105.937509 
L 284.31775 105.68927 
L 284.50375 105.856645 
L 284.87575 104.9526 
L 285.06175 106.130287 
L 285.43375 106.552801 
L 285.80575 106.010675 
L 285.99175 106.195816 
L 286.17775 104.509136 
L 286.36375 104.061583 
L 286.54975 104.748732 
L 286.92175 104.066106 
L 287.10775 104.553445 
L 287.29375 104.53921 
L 287.66575 103.231046 
L 287.85175 103.277747 
L 288.03775 103.527938 
L 288.22375 102.240832 
L 288.59575 102.510718 
L 288.78175 102.477089 
L 288.96775 102.971267 
L 289.15375 102.342607 
L 289.33975 102.448929 
L 289.52575 102.858602 
L 289.71175 101.838323 
L 289.89775 101.8531 
L 290.26975 99.407097 
L 290.45575 99.552956 
L 290.64175 99.940564 
L 290.82775 102.753613 
L 291.01375 102.736504 
L 291.19975 102.417245 
L 291.38575 103.230232 
L 291.57175 103.1982 
L 291.94375 101.185228 
L 292.12975 101.938255 
L 292.31575 101.713444 
L 292.50175 101.888045 
L 292.68775 102.224366 
L 293.24575 100.218605 
L 293.43175 99.967214 
L 293.80375 100.090768 
L 293.98975 100.982204 
L 294.17575 101.052899 
L 294.36175 100.601574 
L 294.91975 100.576194 
L 295.10575 101.427922 
L 295.29175 101.607634 
L 295.66375 99.892399 
L 295.84975 100.926085 
L 296.03575 100.928811 
L 296.22175 101.242037 
L 296.40775 100.47761 
L 296.59375 100.312009 
L 296.77975 101.294617 
L 296.96575 101.293943 
L 297.15175 101.079116 
L 297.33775 99.96029 
L 297.52375 99.956705 
L 297.70975 99.689499 
L 297.89575 98.908683 
L 298.26775 99.034963 
L 298.45375 94.074345 
L 299.01175 96.986699 
L 299.19775 95.480947 
L 299.56975 96.716302 
L 299.75575 95.22748 
L 300.31375 96.664682 
L 300.49975 96.660887 
L 300.87175 97.870366 
L 301.05775 97.828939 
L 301.24375 103.076256 
L 301.42975 102.830256 
L 301.61575 101.832832 
L 301.80175 102.064977 
L 302.17375 99.48831 
L 302.35975 99.582549 
L 302.54575 99.994414 
L 302.73175 99.909724 
L 302.91775 99.702099 
L 303.10375 98.368733 
L 303.28975 98.70713 
L 303.47575 99.493662 
L 303.66175 99.092554 
L 303.84775 99.173566 
L 304.03375 99.069962 
L 304.40575 95.563353 
L 304.59175 98.385083 
L 304.77775 98.258005 
L 304.96375 98.384959 
L 305.14975 99.354052 
L 305.33575 99.666318 
L 305.52175 99.601803 
L 305.70775 99.080364 
L 306.07975 99.245454 
L 306.26575 101.127436 
L 306.82375 100.550721 
L 307.38175 102.363859 
L 307.75375 103.11742 
L 308.12575 102.715972 
L 308.31175 102.72419 
L 308.49775 100.031993 
L 308.68375 100.385995 
L 308.86975 99.738524 
L 309.05575 100.702513 
L 309.24175 100.542992 
L 309.42775 101.74351 
L 309.61375 102.186664 
L 309.79975 101.775016 
L 309.98575 100.87297 
L 310.17175 100.888855 
L 310.35775 101.19484 
L 310.54375 100.69315 
L 310.72975 101.271181 
L 310.91575 101.069504 
L 311.10175 101.358295 
L 311.28775 100.824425 
L 311.65975 105.637449 
L 311.84575 104.527879 
L 312.03175 105.097019 
L 312.21775 95.573034 
L 312.40375 95.796481 
L 312.58975 94.194569 
L 312.77575 94.2558 
L 312.96175 93.913267 
L 313.14775 93.89217 
L 313.51975 91.630503 
L 313.70575 92.305709 
L 313.89175 91.229659 
L 314.07775 91.125103 
L 314.26375 91.315031 
L 314.44975 91.732395 
L 314.82175 90.184844 
L 315.19375 91.019355 
L 315.37975 113.829447 
L 315.75175 113.441042 
L 315.93775 113.452976 
L 316.86775 111.335155 
L 317.05375 111.42223 
L 317.23975 111.025824 
L 317.42575 108.98271 
L 317.61175 109.239894 
L 317.98375 108.655016 
L 318.16975 108.855833 
L 318.35575 108.716356 
L 318.54175 108.368433 
L 318.72775 108.426666 
L 318.91375 108.847833 
L 319.09975 108.732093 
L 319.28575 108.407436 
L 319.47175 108.407862 
L 319.65775 107.889489 
L 320.02975 107.92311 
L 320.58775 108.581572 
L 320.77375 107.684761 
L 321.14575 108.260438 
L 321.33175 107.415967 
L 321.51775 107.138174 
L 321.70375 107.262224 
L 322.07575 106.429859 
L 322.44775 105.990461 
L 322.63375 106.287399 
L 322.81975 105.808193 
L 323.37775 106.56132 
L 323.56375 106.253694 
L 323.74975 104.181257 
L 324.30775 104.121761 
L 324.49375 104.80142 
L 324.67975 104.596344 
L 324.86575 111.348081 
L 325.05175 111.359358 
L 325.23775 111.234626 
L 325.42375 110.772249 
L 325.60975 111.187599 
L 325.79575 110.734021 
L 326.35375 110.434588 
L 326.53975 110.679961 
L 326.72575 109.933789 
L 327.09775 110.595666 
L 327.28375 110.042132 
L 327.46975 110.81284 
L 327.65575 110.306101 
L 327.84175 110.407396 
L 328.21375 109.889217 
L 328.39975 109.900695 
L 328.58575 110.110899 
L 328.95775 109.642597 
L 328.95775 109.642597 
" clip-path="url(#pf943511f9d)" style="fill: none; stroke: #000000; stroke-width: 1.5; stroke-linecap: square"/>
   </g>
   <g id="line2d_19">
    <path d="M 54.137722 -1 
L 55.35175 24.884544 
L 56.65375 48.326246 
L 57.95575 67.98707 
L 59.25775 84.391419 
L 60.55975 97.947962 
L 61.86175 108.991547 
L 62.97775 116.673529 
L 64.09375 122.874753 
L 65.20975 127.765496 
L 65.95375 130.51547 
L 66.13975 130.826381 
L 66.51175 132.292308 
L 67.25575 133.209836 
L 67.44175 133.87698 
L 68.18575 134.470307 
L 68.74375 134.729017 
L 68.92975 134.689797 
L 69.30175 134.969395 
L 69.48775 134.343973 
L 69.67375 134.557554 
L 69.85975 134.454516 
L 70.60375 135.136065 
L 71.90575 135.46238 
L 72.27775 135.458918 
L 72.46375 135.619895 
L 73.02175 135.502684 
L 73.76575 135.164171 
L 73.95175 134.980517 
L 74.32375 134.980424 
L 75.06775 134.285104 
L 75.25375 134.899653 
L 75.62575 134.52415 
L 77.29975 132.553001 
L 77.67175 132.020231 
L 78.78775 130.5549 
L 79.15975 129.782619 
L 80.27575 128.392886 
L 80.64775 127.748659 
L 80.83375 127.921726 
L 81.39175 126.79717 
L 81.94975 126.279045 
L 82.13575 124.720721 
L 83.25175 122.992033 
L 83.43775 122.631982 
L 83.80975 121.428366 
L 83.99575 121.288772 
L 84.18175 121.344342 
L 84.36775 120.22097 
L 84.73975 119.58888 
L 85.48375 119.54059 
L 85.66975 119.368972 
L 86.04175 119.292785 
L 86.22775 118.823709 
L 86.41375 119.146353 
L 86.59975 118.884026 
L 86.78575 118.83047 
L 86.97175 119.316802 
L 87.52975 119.002011 
L 87.71575 118.188962 
L 87.90175 118.075019 
L 88.08775 118.135313 
L 88.45975 118.437503 
L 88.64575 118.387881 
L 88.83175 118.549463 
L 89.01775 118.518313 
L 89.20375 117.422312 
L 89.38975 115.527295 
L 89.57575 116.124185 
L 89.76175 116.132658 
L 89.94775 114.213733 
L 90.13375 114.174985 
L 90.31975 113.999602 
L 90.69175 115.048669 
L 91.43575 113.880447 
L 91.62175 113.857917 
L 91.99375 113.374141 
L 92.17975 113.086435 
L 92.36575 113.380585 
L 92.55175 112.582289 
L 92.73775 110.527046 
L 92.92375 110.269034 
L 93.10975 110.395546 
L 93.29575 110.288783 
L 93.66775 110.498871 
L 94.03975 110.329738 
L 94.22575 110.228783 
L 94.78375 110.767393 
L 94.96975 110.427881 
L 95.15575 110.633074 
L 95.34175 110.593327 
L 95.52775 111.206117 
L 95.71375 111.071279 
L 96.27175 110.429585 
L 96.64375 110.28426 
L 96.82975 109.769985 
L 97.01575 109.87169 
L 97.20175 110.103533 
L 97.38775 110.097206 
L 97.57375 110.693476 
L 97.75975 113.306954 
L 97.94575 113.104867 
L 98.13175 112.223221 
L 98.50375 112.288952 
L 98.68975 112.265113 
L 98.87575 112.378204 
L 99.06175 112.679186 
L 99.24775 112.49303 
L 99.43375 112.506692 
L 99.61975 113.916422 
L 99.80575 113.853565 
L 100.36375 113.391954 
L 100.54975 113.399173 
L 101.29375 112.94657 
L 101.47975 113.00073 
L 101.66575 112.754698 
L 101.85175 112.812692 
L 102.03775 112.664579 
L 102.22375 111.911327 
L 102.40975 111.771261 
L 102.59575 111.030557 
L 102.78175 100.081219 
L 103.33975 100.258213 
L 104.64175 100.630974 
L 105.57175 100.661419 
L 105.75775 99.350071 
L 106.68775 99.467399 
L 107.24575 99.262756 
L 107.61775 98.729567 
L 107.98975 98.930741 
L 108.91975 99.780725 
L 109.29175 100.002028 
L 109.47775 100.229317 
L 109.66375 100.236349 
L 109.84975 100.386274 
L 110.03575 101.716566 
L 110.59375 100.78519 
L 110.96575 101.22578 
L 111.33775 101.303864 
L 111.70975 100.490853 
L 111.89575 100.595309 
L 112.08175 101.529496 
L 112.45375 101.793511 
L 112.63975 101.227686 
L 112.82575 101.380477 
L 113.38375 102.252527 
L 113.56975 101.687739 
L 113.75575 101.692766 
L 113.94175 100.964135 
L 114.12775 102.075401 
L 114.31375 101.356111 
L 114.49975 101.351983 
L 114.68575 101.734619 
L 114.87175 101.747506 
L 115.05775 101.925902 
L 115.24375 101.784612 
L 115.61575 102.461747 
L 115.80175 101.537744 
L 115.98775 101.839213 
L 116.17375 101.638761 
L 116.35975 101.634075 
L 116.54575 102.495166 
L 116.91775 102.472017 
L 117.28975 101.97653 
L 117.47575 102.048077 
L 117.66175 101.998905 
L 117.84775 102.310884 
L 118.03375 101.542925 
L 118.40575 101.843822 
L 118.59175 102.342491 
L 118.77775 101.99377 
L 118.96375 102.366531 
L 119.33575 101.462549 
L 119.52175 101.563403 
L 119.70775 101.346376 
L 119.89375 102.008679 
L 120.07975 102.081799 
L 120.26575 101.750132 
L 120.45175 101.095357 
L 120.63775 101.144637 
L 120.82375 102.161424 
L 121.00975 102.236959 
L 121.19575 101.628189 
L 121.56775 101.405206 
L 121.75375 106.900019 
L 121.93975 106.53024 
L 122.12575 106.5062 
L 122.49775 106.899632 
L 122.68375 102.597747 
L 123.79975 103.590509 
L 123.98575 104.093345 
L 124.54375 104.104126 
L 125.10175 103.646039 
L 125.28775 103.637195 
L 125.47375 103.825117 
L 125.65975 103.725634 
L 126.03175 103.690836 
L 126.21775 103.557283 
L 126.40375 103.736329 
L 126.58975 103.568637 
L 126.77575 103.718733 
L 127.33375 104.826994 
L 127.51975 104.690793 
L 127.70575 104.815989 
L 127.89175 104.000507 
L 128.07775 103.958832 
L 128.44975 104.228214 
L 128.63575 104.710263 
L 128.82175 104.879303 
L 129.00775 104.442794 
L 129.19375 104.514736 
L 129.37975 104.349243 
L 130.12375 105.818044 
L 130.30975 105.88582 
L 130.68175 106.179769 
L 130.86775 106.045829 
L 131.05375 106.398987 
L 131.23975 106.352735 
L 131.42575 106.523231 
L 131.61175 107.81393 
L 132.35575 107.973157 
L 132.54175 107.928694 
L 132.72775 108.160452 
L 132.91375 108.035302 
L 133.09975 108.213582 
L 133.28575 108.237552 
L 133.47175 106.241743 
L 134.40175 107.048349 
L 134.58775 108.886286 
L 134.77375 108.97093 
L 134.95975 110.448366 
L 135.33175 110.334455 
L 135.51775 110.056553 
L 135.70375 110.025217 
L 136.26175 110.76325 
L 136.44775 110.579417 
L 136.63375 110.620287 
L 137.19175 110.221503 
L 137.37775 110.476008 
L 137.74975 109.707143 
L 137.93575 109.717784 
L 138.12175 110.073553 
L 138.30775 109.905512 
L 138.49375 111.366971 
L 138.67975 111.337021 
L 139.23775 111.964813 
L 139.98175 111.759156 
L 140.16775 115.643112 
L 140.72575 114.70633 
L 140.91175 115.300749 
L 141.09775 115.263512 
L 141.84175 115.86683 
L 142.02775 114.875068 
L 142.21375 114.812288 
L 142.39975 114.90068 
L 143.32975 114.745976 
L 143.51575 114.435631 
L 143.88775 114.418987 
L 144.07375 114.624807 
L 144.25975 114.596593 
L 144.44575 114.748919 
L 144.63175 114.018949 
L 145.18975 114.118556 
L 145.56175 113.977847 
L 145.93375 113.298946 
L 146.11975 113.601926 
L 146.30575 113.029091 
L 146.49175 113.069256 
L 146.67775 113.265008 
L 146.86375 114.204609 
L 147.79375 112.261071 
L 148.16575 111.549293 
L 148.35175 111.409227 
L 148.90975 111.946272 
L 149.09575 111.772617 
L 149.28175 111.797346 
L 149.46775 113.4882 
L 149.65375 114.113576 
L 150.21175 113.231163 
L 150.39775 112.278504 
L 150.58375 136.500867 
L 150.76975 136.484712 
L 150.95575 135.982363 
L 151.14175 136.188424 
L 151.32775 135.782631 
L 151.51375 135.713074 
L 151.88575 134.526992 
L 152.07175 134.262621 
L 152.25775 133.793575 
L 152.44375 134.051341 
L 152.81575 133.676031 
L 153.00175 134.408124 
L 153.18775 133.977524 
L 153.37375 118.065237 
L 153.74575 117.722643 
L 153.93175 115.316084 
L 154.30375 115.16643 
L 154.48975 114.269798 
L 154.67575 114.48739 
L 154.86175 114.18448 
L 155.04775 116.050795 
L 155.23375 116.774127 
L 155.41975 116.70952 
L 155.60575 116.44947 
L 155.79175 121.185928 
L 156.16375 119.379954 
L 156.34975 119.309909 
L 156.72175 118.914796 
L 157.46575 118.390011 
L 157.65175 119.2983 
L 158.76775 118.558245 
L 158.95375 118.873144 
L 159.32575 118.388919 
L 159.88375 118.434854 
L 160.99975 117.387886 
L 161.18575 117.599468 
L 161.37175 116.975239 
L 161.55775 116.842399 
L 161.74375 116.424609 
L 161.92975 116.498998 
L 162.11575 117.349138 
L 162.30175 117.314093 
L 162.85975 116.592564 
L 163.23175 116.367932 
L 163.41775 116.315553 
L 163.60375 115.498004 
L 163.78975 118.549649 
L 163.97575 118.595204 
L 164.34775 118.04222 
L 164.53375 118.408018 
L 164.71975 118.185058 
L 164.90575 118.483608 
L 165.09175 120.949484 
L 165.83575 120.822554 
L 166.39375 120.052589 
L 166.57975 120.91763 
L 167.13775 120.315946 
L 167.32375 119.602092 
L 167.50975 121.635386 
L 168.06775 119.677179 
L 168.25375 119.719892 
L 168.43975 119.048473 
L 168.62575 119.190932 
L 168.99775 119.889791 
L 169.36975 117.654317 
L 169.74175 117.753088 
L 169.92775 117.393323 
L 170.11375 116.790771 
L 170.29975 116.622978 
L 170.48575 116.151548 
L 170.67175 116.000089 
L 170.85775 115.053579 
L 171.04375 115.584468 
L 171.22975 115.642198 
L 171.41575 116.430433 
L 171.78775 114.968293 
L 172.34575 114.069515 
L 172.71775 113.477582 
L 172.90375 112.598631 
L 173.08975 117.379173 
L 173.27575 117.45522 
L 173.46175 117.008418 
L 173.64775 116.268441 
L 173.83375 114.102152 
L 174.01975 114.293342 
L 174.20575 115.976862 
L 174.57775 116.149426 
L 174.76375 115.554921 
L 175.13575 115.404585 
L 175.32175 115.254745 
L 175.50775 115.360943 
L 175.87975 115.103697 
L 176.06575 115.18439 
L 176.25175 114.961353 
L 176.62375 115.4057 
L 176.80975 115.07391 
L 176.99575 115.220203 
L 177.18175 114.438133 
L 177.36775 115.654505 
L 177.55375 115.77699 
L 177.73975 115.7185 
L 178.11175 115.812082 
L 178.29775 119.301064 
L 178.66975 118.473021 
L 178.85575 118.620305 
L 179.04175 118.300457 
L 179.22775 118.410264 
L 179.41375 118.01581 
L 179.59975 116.215838 
L 179.78575 116.153073 
L 179.97175 113.13223 
L 180.71575 113.844526 
L 180.90175 113.202313 
L 181.08775 115.514888 
L 181.27375 115.367479 
L 181.64575 115.428013 
L 181.83175 114.855156 
L 182.01775 115.178721 
L 182.20375 115.24432 
L 182.38975 115.050218 
L 182.57575 115.236939 
L 182.76175 115.773148 
L 183.31975 113.98965 
L 183.50575 114.029505 
L 183.87775 114.464272 
L 184.06375 113.179257 
L 184.24975 113.398313 
L 184.43575 112.921484 
L 184.80775 113.711384 
L 184.99375 113.327416 
L 185.17975 113.66184 
L 185.36575 113.176221 
L 185.55175 113.576027 
L 185.92375 113.53927 
L 186.10975 113.440918 
L 186.29575 111.935987 
L 186.48175 111.565774 
L 187.03975 112.280804 
L 187.22575 109.32886 
L 187.41175 109.541712 
L 187.96975 108.437246 
L 188.15575 109.110152 
L 188.34175 109.212307 
L 188.52775 109.682731 
L 188.89975 109.349035 
L 189.08575 109.250954 
L 189.27175 107.92603 
L 189.82975 109.345186 
L 190.01575 110.931461 
L 190.20175 111.086459 
L 190.38775 108.99411 
L 190.57375 108.257069 
L 190.75975 108.531888 
L 190.94575 108.44877 
L 191.13175 108.707356 
L 191.31775 108.467482 
L 191.68975 107.201357 
L 191.87575 87.421959 
L 192.06175 87.389462 
L 192.24775 87.0698 
L 192.61975 88.250569 
L 192.99175 88.67663 
L 193.17775 89.359294 
L 193.54975 89.064733 
L 193.73575 89.479541 
L 194.10775 92.589296 
L 194.29375 92.685069 
L 194.47975 92.21607 
L 194.66575 95.446575 
L 194.85175 94.978281 
L 195.03775 91.68258 
L 195.40975 93.618071 
L 195.59575 95.952099 
L 196.15375 98.651073 
L 196.33975 97.610471 
L 196.52575 97.640738 
L 196.71175 97.257955 
L 196.89775 99.099052 
L 197.08375 99.410458 
L 197.26975 100.652458 
L 197.45575 101.060079 
L 197.64175 101.009675 
L 197.82775 98.930787 
L 198.38575 99.531046 
L 198.57175 100.520741 
L 198.75775 100.367888 
L 199.50175 104.009785 
L 199.68775 104.327953 
L 199.87375 104.16847 
L 200.05975 104.388657 
L 200.24575 103.779832 
L 200.43175 104.219486 
L 200.61775 103.945131 
L 200.80375 106.729833 
L 200.98975 106.894412 
L 201.17575 106.814291 
L 201.54775 107.397821 
L 201.73375 107.580995 
L 201.91975 107.111911 
L 202.29175 107.956467 
L 202.47775 81.357812 
L 202.66375 82.407073 
L 202.84975 82.420208 
L 203.03575 82.95081 
L 203.22175 85.859663 
L 203.40775 86.860208 
L 203.59375 89.390529 
L 203.77975 89.980527 
L 204.52375 96.682054 
L 204.70975 95.976604 
L 204.89575 93.065815 
L 205.08175 98.524336 
L 205.26775 99.573527 
L 205.45375 99.673521 
L 205.63975 98.703266 
L 205.82575 99.614094 
L 206.01175 101.818713 
L 206.38375 102.672694 
L 206.56975 103.980548 
L 206.94175 104.871907 
L 207.12775 104.611485 
L 207.49975 101.351007 
L 207.68575 102.07623 
L 207.87175 102.280246 
L 208.05775 103.716649 
L 208.24375 104.026956 
L 208.42975 104.586725 
L 208.61575 104.381834 
L 208.98775 104.974712 
L 209.17375 105.830699 
L 209.35975 104.645617 
L 209.54575 105.239866 
L 209.73175 105.092194 
L 209.91775 105.643854 
L 210.28975 104.821635 
L 210.47575 104.260828 
L 210.66175 105.019113 
L 210.84775 105.128185 
L 211.03375 104.910848 
L 211.40575 106.91736 
L 211.59175 107.144022 
L 211.77775 107.568658 
L 212.14975 109.1728 
L 212.33575 109.256321 
L 212.52175 109.188832 
L 212.70775 110.511673 
L 212.89375 110.722008 
L 213.07975 110.404461 
L 213.26575 108.495286 
L 213.45175 108.844503 
L 213.63775 108.327873 
L 213.82375 109.022217 
L 214.00975 109.046001 
L 214.56775 106.934151 
L 214.75375 107.252884 
L 214.93975 108.136249 
L 215.12575 108.212435 
L 215.31175 111.235935 
L 215.49775 112.055978 
L 215.68375 112.30012 
L 215.86975 112.976759 
L 216.05575 112.817796 
L 216.24175 112.980601 
L 216.42775 113.530278 
L 216.61375 113.254003 
L 216.79975 113.596683 
L 216.98575 113.599509 
L 217.17175 113.319904 
L 217.35775 115.837896 
L 217.54375 115.764675 
L 217.72975 115.997246 
L 217.91575 115.166926 
L 218.10175 115.471803 
L 218.28775 115.463121 
L 218.47375 115.585962 
L 218.65975 116.178337 
L 218.84575 116.149867 
L 219.03175 115.945828 
L 219.21775 116.467012 
L 219.40375 116.431362 
L 219.77575 116.747075 
L 220.33375 116.522094 
L 220.51975 115.92288 
L 220.70575 113.008986 
L 220.89175 112.065419 
L 221.07775 112.399874 
L 221.26375 112.469539 
L 221.44975 108.12673 
L 221.63575 107.31554 
L 222.00775 110.480051 
L 222.19375 110.336824 
L 222.56575 111.811682 
L 222.75175 111.141665 
L 223.12375 110.819958 
L 223.49575 112.732889 
L 223.68175 112.260861 
L 223.86775 110.96883 
L 224.05375 111.544925 
L 224.23975 111.371734 
L 224.42575 111.693688 
L 224.61175 111.607635 
L 224.79775 111.656056 
L 224.98375 110.825371 
L 225.16975 111.904651 
L 225.54175 112.466047 
L 225.72775 111.558866 
L 226.09975 111.592432 
L 226.28575 111.965751 
L 226.47175 111.648482 
L 226.65775 112.159465 
L 226.84375 112.065419 
L 227.02975 112.329504 
L 227.21575 113.379694 
L 227.40175 113.622713 
L 227.58775 114.130591 
L 227.77375 114.308143 
L 228.14575 119.46239 
L 228.33175 118.461163 
L 228.51775 118.476034 
L 228.70375 117.991127 
L 229.07575 117.764868 
L 229.26175 118.247877 
L 229.44775 118.232728 
L 229.63375 119.015681 
L 230.56375 118.444357 
L 230.74975 118.456253 
L 230.93575 118.307613 
L 231.12175 118.306963 
L 231.30775 118.168608 
L 231.49375 118.700604 
L 231.86575 118.437379 
L 232.05175 117.311583 
L 232.23775 117.458736 
L 232.42375 117.045415 
L 232.79575 116.941285 
L 232.98175 116.410699 
L 233.16775 114.725506 
L 233.35375 114.716933 
L 233.72575 116.187515 
L 233.91175 115.90035 
L 234.09775 115.915832 
L 234.28375 116.272073 
L 234.65575 116.007779 
L 235.21375 116.30619 
L 235.39975 116.218936 
L 235.58575 117.252141 
L 235.77175 117.25108 
L 235.95775 118.00712 
L 236.32975 117.447498 
L 236.51575 117.940979 
L 236.70175 117.224724 
L 237.07375 117.162773 
L 237.25975 117.538803 
L 237.81775 117.05175 
L 238.00375 117.260219 
L 238.18975 117.860409 
L 238.37575 117.774634 
L 238.74775 116.952329 
L 238.93375 116.951477 
L 239.11975 116.811156 
L 239.30575 116.04085 
L 239.49175 118.134864 
L 239.67775 118.265512 
L 240.04975 117.998585 
L 240.23575 118.170699 
L 240.42175 117.642739 
L 240.79375 117.407906 
L 240.97975 117.260049 
L 241.16575 116.942997 
L 241.53775 116.896946 
L 241.72375 116.201425 
L 242.46775 117.514747 
L 242.65375 117.764078 
L 243.02575 117.248586 
L 243.21175 117.463313 
L 243.58375 116.419691 
L 243.76975 114.857518 
L 243.95575 114.73425 
L 244.14175 114.171484 
L 244.32775 114.614383 
L 244.51375 116.533138 
L 244.69975 116.449997 
L 244.88575 126.013969 
L 245.07175 125.958508 
L 245.25775 125.728245 
L 245.44375 125.974509 
L 245.81575 125.491561 
L 246.00175 127.017527 
L 246.18775 126.847798 
L 246.55975 125.914827 
L 246.74575 125.798305 
L 247.11775 125.054843 
L 247.30375 124.99015 
L 247.48975 124.627217 
L 247.67575 125.098702 
L 247.86175 125.102706 
L 248.04775 124.790503 
L 248.23375 125.102257 
L 248.41975 124.974854 
L 248.60575 125.269508 
L 249.90775 124.302568 
L 250.09375 124.130941 
L 250.27975 124.244318 
L 250.83775 123.315088 
L 251.02375 121.799144 
L 251.20975 121.76581 
L 251.39575 122.791596 
L 251.58175 121.687835 
L 251.76775 122.319716 
L 251.95375 119.849069 
L 252.13975 119.954879 
L 252.51175 120.658835 
L 252.88375 120.181425 
L 253.25575 120.36288 
L 253.62775 119.814906 
L 253.81375 100.925906 
L 254.55775 105.381535 
L 254.74375 105.589462 
L 255.11575 103.690379 
L 255.30175 104.048572 
L 255.48775 105.371668 
L 255.67375 104.432625 
L 255.85975 104.322516 
L 256.04575 104.767777 
L 256.41775 108.274216 
L 256.60375 113.219654 
L 256.78975 112.840976 
L 256.97575 114.005132 
L 257.16175 114.326204 
L 257.34775 114.308158 
L 257.53375 111.315979 
L 257.71975 110.993954 
L 257.90575 119.06411 
L 258.09175 119.25585 
L 258.27775 118.083841 
L 258.46375 117.814629 
L 258.64975 117.941908 
L 258.83575 117.836725 
L 259.02175 117.921345 
L 259.39375 118.609176 
L 260.13775 118.159485 
L 260.32375 117.929059 
L 260.50975 119.362334 
L 260.69575 119.373557 
L 260.88175 119.160441 
L 261.06775 123.981852 
L 261.25375 124.03722 
L 261.43975 124.461159 
L 261.81175 124.393361 
L 261.99775 124.460269 
L 262.18375 124.340301 
L 262.55575 124.577712 
L 263.11375 123.761967 
L 263.29975 124.784671 
L 263.48575 124.919602 
L 263.67175 124.814024 
L 264.04375 124.822489 
L 264.22975 124.703706 
L 264.41575 122.987247 
L 264.60175 122.795143 
L 264.78775 122.328514 
L 264.97375 122.301701 
L 265.15975 122.128317 
L 265.53175 122.735748 
L 265.71775 122.363854 
L 266.08975 122.439467 
L 266.27575 122.222185 
L 266.64775 124.970788 
L 266.83375 124.930979 
L 267.20575 124.686257 
L 267.39175 124.723843 
L 267.76375 124.006016 
L 267.94975 123.983641 
L 268.13575 123.723793 
L 269.43775 123.76316 
L 269.80975 124.075751 
L 270.36775 123.526236 
L 270.55375 123.799212 
L 271.29775 122.884674 
L 271.48375 122.921625 
L 271.85575 123.347903 
L 272.22775 123.1491 
L 272.59975 122.967273 
L 272.78575 122.411818 
L 272.97175 122.604201 
L 273.34375 121.757647 
L 273.52975 122.080074 
L 274.08775 122.39876 
L 274.27375 122.676693 
L 274.45975 122.622789 
L 274.64575 122.985783 
L 274.83175 123.072634 
L 275.01775 122.788645 
L 275.20375 123.294448 
L 275.57575 123.206791 
L 275.94775 123.589411 
L 276.13375 123.405052 
L 276.31975 122.450504 
L 276.50575 122.258361 
L 276.69175 122.438042 
L 276.87775 123.154064 
L 277.43575 124.029406 
L 277.80775 123.767032 
L 277.99375 124.059913 
L 278.17975 124.060192 
L 278.36575 124.808424 
L 278.55175 124.895616 
L 278.92375 124.583234 
L 279.10975 125.475607 
L 279.29575 125.360983 
L 279.66775 125.421958 
L 279.85375 123.906944 
L 280.22575 124.42338 
L 280.41175 124.22958 
L 280.59775 124.797248 
L 280.78375 123.202113 
L 280.96975 123.42649 
L 281.15575 120.500506 
L 281.34175 121.04209 
L 281.52775 121.228075 
L 281.71375 120.814251 
L 281.89975 120.867164 
L 282.08575 121.337751 
L 282.27175 121.500269 
L 282.64375 122.310244 
L 282.82975 122.131601 
L 283.01575 121.615312 
L 283.20175 122.30071 
L 283.57375 122.590462 
L 283.75975 123.21246 
L 283.94575 123.282296 
L 284.13175 122.679257 
L 284.31775 122.852138 
L 284.50375 122.696868 
L 284.87575 124.692786 
L 285.06175 125.000838 
L 285.43375 125.073655 
L 285.61975 125.285919 
L 285.99175 125.344897 
L 286.17775 125.554891 
L 286.36375 125.356646 
L 286.54975 125.782529 
L 286.73575 125.626648 
L 286.92175 125.737206 
L 287.10775 126.050401 
L 287.29375 126.057418 
L 287.47975 124.426447 
L 288.03775 123.676278 
L 288.22375 123.80626 
L 288.40975 124.178704 
L 288.59575 124.004126 
L 288.78175 124.184629 
L 288.96775 124.851339 
L 289.15375 124.051099 
L 289.33975 125.016196 
L 289.52575 124.156522 
L 289.71175 124.772751 
L 289.89775 123.503869 
L 290.08375 118.260803 
L 290.45575 119.650142 
L 290.64175 119.807525 
L 291.01375 120.301424 
L 291.19975 121.173699 
L 291.38575 121.093508 
L 291.94375 122.896376 
L 292.31575 122.636342 
L 292.87375 126.425524 
L 293.05975 128.456518 
L 293.24575 128.193184 
L 293.43175 128.456897 
L 293.61775 130.518321 
L 293.80375 130.389368 
L 294.36175 130.376907 
L 294.73375 129.937757 
L 294.91975 130.506169 
L 295.10575 130.711036 
L 295.29175 130.597915 
L 295.47775 130.878914 
L 295.66375 130.708535 
L 295.84975 130.334674 
L 296.03575 130.380601 
L 296.22175 130.64079 
L 296.40775 129.266454 
L 296.77975 129.284732 
L 296.96575 129.907536 
L 297.15175 129.745126 
L 297.33775 129.363644 
L 297.52375 129.559133 
L 297.70975 127.935435 
L 298.08175 128.340709 
L 298.26775 128.835002 
L 298.45375 128.584711 
L 298.63975 128.636013 
L 298.82575 129.445771 
L 299.01175 129.354126 
L 299.19775 128.897472 
L 299.38375 128.001227 
L 299.56975 128.253246 
L 299.75575 129.002539 
L 300.12775 128.995019 
L 300.31375 128.809886 
L 300.68575 129.103664 
L 300.87175 110.091746 
L 301.05775 111.045481 
L 301.24375 110.945975 
L 301.42975 112.238363 
L 301.61575 112.510401 
L 301.98775 114.507945 
L 302.17375 115.321281 
L 302.35975 118.866066 
L 302.54575 118.786588 
L 302.91775 120.634709 
L 303.10375 119.85463 
L 303.28975 119.787807 
L 303.47575 118.101034 
L 303.84775 119.32117 
L 304.03375 118.837959 
L 304.21975 120.841676 
L 304.40575 121.044483 
L 304.59175 122.375061 
L 304.77775 122.241787 
L 304.96375 121.936972 
L 305.14975 123.344727 
L 305.33575 123.704454 
L 305.52175 123.703796 
L 305.70775 122.911371 
L 305.89375 123.269974 
L 306.07975 124.035059 
L 306.45175 123.307784 
L 306.82375 122.824039 
L 307.00975 124.800633 
L 307.19575 125.303338 
L 307.38175 131.879731 
L 307.56775 131.448875 
L 307.75375 131.419073 
L 307.93975 131.55457 
L 308.12575 131.299237 
L 308.49775 131.237138 
L 308.68375 130.992609 
L 309.05575 131.086485 
L 309.79975 129.666965 
L 309.98575 129.855924 
L 310.35775 130.476994 
L 310.54375 130.231814 
L 310.72975 130.755469 
L 310.91575 129.984141 
L 311.10175 129.792579 
L 311.47375 130.094087 
L 311.65975 139.151769 
L 311.84575 138.905807 
L 312.03175 138.27051 
L 312.58975 138.044065 
L 312.96175 137.230435 
L 313.14775 136.958667 
L 313.33375 137.015336 
L 313.51975 136.555376 
L 313.70575 136.570176 
L 313.89175 136.409447 
L 314.07775 135.776419 
L 314.26375 135.758343 
L 314.44975 135.212368 
L 314.63575 135.103993 
L 315.00775 134.476279 
L 315.37975 134.273069 
L 315.56575 133.717807 
L 315.75175 134.276105 
L 315.93775 134.283904 
L 316.12375 134.657222 
L 316.30975 134.677398 
L 316.49575 135.066005 
L 316.68175 135.02831 
L 316.86775 135.10627 
L 317.05375 135.000901 
L 317.42575 134.110031 
L 317.61175 133.873727 
L 317.98375 133.979693 
L 318.35575 134.815884 
L 318.72775 134.544348 
L 319.09975 134.55784 
L 319.47175 134.490212 
L 319.65775 135.019652 
L 320.02975 135.080441 
L 320.21575 135.02196 
L 320.40175 135.091493 
L 320.58775 134.926156 
L 320.95975 134.145797 
L 321.14575 134.455484 
L 321.33175 134.059411 
L 321.51775 135.178786 
L 321.70375 135.03319 
L 321.88975 135.271236 
L 322.07575 135.022331 
L 322.26175 136.138407 
L 322.44775 135.245183 
L 322.81975 135.14319 
L 323.00575 135.267426 
L 323.19175 135.247328 
L 323.56375 135.014966 
L 323.74975 130.101019 
L 323.93575 130.735495 
L 324.12175 130.876103 
L 324.30775 131.547096 
L 324.49375 129.767346 
L 324.67975 129.758269 
L 324.86575 129.583367 
L 325.05175 130.117732 
L 325.23775 129.161379 
L 325.60975 129.914143 
L 325.79575 130.266372 
L 325.98175 130.018977 
L 326.35375 130.569537 
L 326.53975 130.539542 
L 326.72575 130.238622 
L 326.91175 129.509775 
L 327.09775 129.955245 
L 327.28375 133.776692 
L 327.46975 133.842988 
L 327.65575 134.086951 
L 327.84175 134.105655 
L 328.02775 133.431851 
L 328.39975 133.161098 
L 328.95775 132.72448 
L 328.95775 132.72448 
" clip-path="url(#pf943511f9d)" style="fill: none; stroke: #bfbf00; stroke-width: 1.5; stroke-linecap: square"/>
   </g>
   <g id="line2d_20">
    <path d="M 52.932302 -1 
L 53.86375 26.095223 
L 54.97975 52.45834 
L 56.09575 73.460546 
L 57.21175 90.124961 
L 58.32775 103.253242 
L 59.44375 113.477915 
L 60.37375 120.14902 
L 61.30375 125.401062 
L 62.23375 129.440311 
L 63.16375 132.441839 
L 63.90775 134.19864 
L 64.65175 135.457547 
L 65.39575 136.278597 
L 66.13975 136.712403 
L 66.88375 136.810678 
L 67.62775 136.614237 
L 68.37175 136.1657 
L 69.30175 135.283241 
L 70.23175 134.097244 
L 71.34775 132.306768 
L 72.27775 130.446781 
L 73.02175 128.64114 
L 73.20775 128.466392 
L 73.39375 101.097796 
L 75.06775 99.553251 
L 76.92775 98.159405 
L 78.97375 96.975438 
L 82.32175 95.191389 
L 82.50775 95.000486 
L 82.87975 94.166602 
L 83.25175 94.621467 
L 83.43775 94.917244 
L 83.62375 94.471836 
L 83.80975 95.716515 
L 84.36775 95.261054 
L 84.55375 93.696271 
L 87.52975 95.257476 
L 88.08775 95.632623 
L 88.27375 96.057484 
L 88.83175 96.304708 
L 89.01775 96.071215 
L 89.57575 96.591415 
L 89.76175 96.929131 
L 89.94775 97.539582 
L 90.31975 97.241761 
L 90.69175 96.862378 
L 90.87775 97.093624 
L 91.06375 96.480276 
L 91.43575 97.707065 
L 91.80775 97.312014 
L 91.99375 96.142879 
L 92.17975 95.842067 
L 92.36575 96.232363 
L 92.55175 96.181022 
L 92.73775 95.798394 
L 92.92375 96.020269 
L 93.10975 96.822941 
L 93.48175 96.316666 
L 93.66775 95.992388 
L 94.03975 96.471726 
L 94.22575 97.609782 
L 94.41175 97.200581 
L 94.59775 97.653966 
L 95.52775 96.761702 
L 95.71375 97.267032 
L 95.89975 96.555092 
L 96.27175 96.961233 
L 96.45775 97.591736 
L 96.64375 97.629043 
L 96.82975 97.005348 
L 97.01575 97.106442 
L 97.20175 97.528476 
L 97.57375 97.322842 
L 97.75975 97.561508 
L 97.94575 99.254732 
L 98.31775 99.114844 
L 98.50375 98.687427 
L 100.54975 98.772048 
L 100.92175 98.828392 
L 101.10775 98.275624 
L 107.05975 98.807628 
L 113.38375 99.740816 
L 113.56975 100.1521 
L 118.03375 100.025409 
L 118.40575 100.127588 
L 119.14975 100.089514 
L 119.33575 99.965898 
L 120.82375 100.114599 
L 121.00975 100.763767 
L 122.68375 100.535797 
L 123.24175 100.299764 
L 123.42775 100.076657 
L 123.61375 100.310669 
L 123.79975 99.959787 
L 124.17175 100.375129 
L 124.35775 100.19805 
L 124.54375 99.466709 
L 125.28775 100.290106 
L 125.47375 100.606066 
L 125.84575 101.643926 
L 126.03175 101.35213 
L 126.40375 101.589503 
L 126.58975 101.237901 
L 126.77575 101.204141 
L 127.51975 102.267699 
L 127.89175 102.968618 
L 128.44975 102.300754 
L 128.63575 102.679734 
L 129.00775 102.586346 
L 129.19375 102.458904 
L 129.37975 102.169835 
L 129.56575 102.863629 
L 129.75175 102.841594 
L 130.12375 102.226426 
L 130.30975 104.710093 
L 130.49575 104.628888 
L 130.68175 104.863798 
L 130.86775 104.826367 
L 131.23975 105.106561 
L 131.42575 103.873886 
L 131.61175 104.344132 
L 131.79775 103.731713 
L 131.98375 104.161554 
L 132.16975 104.240025 
L 132.35575 103.887339 
L 132.54175 164.364865 
L 133.47175 161.484637 
L 133.84375 160.497704 
L 137.00575 150.603625 
L 138.49375 146.983375 
L 140.72575 142.202701 
L 140.91175 142.257543 
L 142.58575 139.238891 
L 144.44575 136.375199 
L 146.11975 134.292276 
L 147.97975 132.367015 
L 149.09575 131.432487 
L 150.95575 130.098943 
L 151.32775 129.928347 
L 152.07175 129.470872 
L 152.25775 128.7452 
L 154.11775 128.004984 
L 157.09375 127.133321 
L 161.74375 126.203804 
L 163.23175 125.990649 
L 163.41775 125.166966 
L 170.11375 126.19832 
L 170.29975 126.316221 
L 170.48575 126.241033 
L 170.67175 130.398275 
L 172.53175 129.771459 
L 174.57775 129.265648 
L 177.36775 128.836985 
L 180.52975 128.544763 
L 184.24975 128.397114 
L 185.73775 128.38614 
L 187.22575 128.445489 
L 191.13175 128.594129 
L 202.29175 129.454213 
L 202.47775 129.767648 
L 202.84975 129.759787 
L 203.03575 129.583003 
L 203.77975 129.690014 
L 204.15175 129.916079 
L 204.70975 130.151601 
L 204.89575 130.032523 
L 205.08175 130.407522 
L 206.01175 130.417544 
L 206.19775 130.684913 
L 206.75575 130.69921 
L 207.31375 129.825626 
L 207.49975 129.860974 
L 207.87175 130.502955 
L 208.42975 130.325915 
L 208.80175 129.779118 
L 208.98775 129.77688 
L 209.17375 129.12858 
L 209.73175 129.248679 
L 210.10375 129.242088 
L 210.66175 129.87912 
L 210.84775 129.871956 
L 211.03375 130.054867 
L 211.40575 130.025134 
L 211.59175 131.037646 
L 211.77775 130.990828 
L 211.96375 131.209551 
L 212.14975 131.102075 
L 212.33575 131.204494 
L 212.52175 131.700266 
L 212.70775 131.87211 
L 212.89375 131.852182 
L 213.07975 131.685962 
L 213.26575 131.688215 
L 213.45175 131.257616 
L 214.75375 131.252705 
L 215.31175 131.435756 
L 215.49775 130.792543 
L 215.68375 130.851978 
L 215.86975 131.215212 
L 216.24175 131.068664 
L 216.42775 131.985797 
L 216.79975 132.172549 
L 216.98575 132.292556 
L 217.17175 132.185987 
L 217.35775 131.285823 
L 217.54375 131.449154 
L 218.28775 131.357679 
L 218.47375 131.53094 
L 218.65975 131.059548 
L 218.84575 131.141915 
L 219.03175 131.069012 
L 219.21775 130.69866 
L 219.58975 130.894195 
L 219.77575 120.562899 
L 219.96175 120.955843 
L 220.14775 120.699836 
L 220.33375 120.758194 
L 220.51975 121.586578 
L 220.70575 121.497295 
L 220.89175 121.99773 
L 221.07775 127.754057 
L 221.44975 127.866288 
L 221.82175 128.197312 
L 222.19375 128.323252 
L 222.56575 128.182411 
L 222.75175 128.296702 
L 222.93775 130.058856 
L 223.30975 130.166083 
L 223.68175 131.03835 
L 224.23975 131.195308 
L 225.16975 131.463304 
L 225.35575 130.927521 
L 225.72775 130.782158 
L 225.91375 130.500461 
L 226.28575 130.568314 
L 226.47175 130.757521 
L 226.65775 129.470973 
L 226.84375 129.504547 
L 227.21575 129.411461 
L 227.40175 129.558413 
L 227.58775 129.951086 
L 227.95975 130.169119 
L 228.51775 130.571071 
L 228.70375 130.488983 
L 230.74975 131.208381 
L 232.60975 131.887507 
L 232.79575 131.389705 
L 233.53975 131.927943 
L 234.09775 131.918749 
L 234.28375 132.195296 
L 234.46975 132.219592 
L 234.84175 132.016304 
L 235.02775 132.004175 
L 235.21375 132.225524 
L 235.77175 132.252461 
L 235.95775 131.804102 
L 236.88775 132.303469 
L 237.07375 132.479734 
L 237.25975 132.494078 
L 237.44575 132.642981 
L 237.63175 133.196097 
L 238.37575 133.337813 
L 238.56175 131.900379 
L 241.16575 132.874243 
L 242.28175 133.177315 
L 242.46775 133.52671 
L 242.65375 134.305806 
L 242.83975 134.290394 
L 243.39775 134.828748 
L 244.14175 134.75281 
L 244.32775 135.675442 
L 245.62975 135.630211 
L 245.81575 136.080754 
L 246.00175 136.120323 
L 246.37375 135.537459 
L 246.93175 135.754323 
L 247.48975 136.379219 
L 247.86175 136.369762 
L 248.04775 136.207352 
L 248.23375 136.224189 
L 248.41975 135.957975 
L 248.60575 131.514753 
L 256.97575 134.096036 
L 262.74175 135.324366 
L 263.29975 135.353084 
L 263.85775 136.948916 
L 265.34575 137.080076 
L 265.53175 138.491402 
L 267.76375 138.092363 
L 267.94975 137.332729 
L 268.13575 137.103698 
L 269.43775 137.268478 
L 269.80975 136.755612 
L 270.36775 136.893084 
L 270.92575 137.391211 
L 271.11175 137.227507 
L 271.29775 137.695631 
L 271.85575 137.693455 
L 272.22775 137.885443 
L 272.59975 137.933918 
L 272.78575 137.78929 
L 273.90175 137.93453 
L 274.08775 137.765033 
L 274.27375 137.807235 
L 274.45975 131.680866 
L 274.64575 131.793453 
L 275.01775 132.425311 
L 275.20375 132.348815 
L 275.38975 132.683711 
L 275.57575 132.499732 
L 275.76175 131.96456 
L 275.94775 131.968967 
L 276.31975 132.48363 
L 276.50575 138.367902 
L 277.24975 138.642388 
L 278.17975 138.626852 
L 278.36575 139.277701 
L 278.55175 139.136287 
L 278.92375 139.423366 
L 279.29575 139.251089 
L 279.66775 139.128364 
L 280.22575 139.127094 
L 280.41175 139.29958 
L 280.59775 139.0373 
L 280.78375 140.269959 
L 282.82975 140.119639 
L 285.06175 140.105915 
L 286.17775 140.085073 
L 286.36375 140.088845 
L 286.54975 139.949724 
L 288.22375 140.061986 
L 288.59575 140.339942 
L 288.78175 140.368753 
L 288.96775 140.555195 
L 289.33975 140.484879 
L 289.71175 140.524665 
L 289.89775 140.648475 
L 290.08375 140.637694 
L 290.26975 140.799469 
L 294.54775 140.958378 
L 294.73375 141.169496 
L 295.47775 141.080128 
L 295.66375 140.947504 
L 298.63975 141.102301 
L 299.38375 141.036663 
L 299.56975 141.352732 
L 299.75575 141.317276 
L 299.94175 144.194816 
L 301.24375 143.63775 
L 301.42975 143.075162 
L 302.73175 143.086477 
L 303.10375 143.090628 
L 303.47575 142.93625 
L 305.52175 142.914185 
L 307.75375 142.91475 
L 308.31175 143.123389 
L 308.49775 142.969901 
L 309.24175 143.219766 
L 309.42775 143.403374 
L 309.79975 143.377158 
L 309.98575 143.222508 
L 310.54375 143.24936 
L 310.72975 142.770432 
L 311.47375 142.749838 
L 311.84575 142.613815 
L 312.03175 141.484836 
L 312.21775 141.644466 
L 312.40375 141.619187 
L 312.58975 149.681683 
L 312.96175 149.200238 
L 314.63575 147.918824 
L 315.19375 147.625518 
L 315.93775 147.217464 
L 316.12375 165.406388 
L 317.61175 163.002583 
L 318.72775 161.607227 
L 319.65775 160.746256 
L 320.21575 160.413207 
L 320.40175 160.374432 
L 320.58775 160.7709 
L 320.77375 160.764809 
L 320.95975 157.844537 
L 322.26175 157.224699 
L 322.81975 157.105745 
L 323.19175 158.14175 
L 324.67975 157.693403 
L 326.53975 157.383043 
L 327.28375 157.30937 
L 327.46975 157.414409 
L 327.65575 156.636963 
L 328.21375 156.594204 
L 328.39975 156.463404 
L 328.58575 156.502737 
L 328.95775 156.018023 
L 328.95775 156.018023 
" clip-path="url(#pf943511f9d)" style="fill: none; stroke: #0000ff; stroke-width: 1.5; stroke-linecap: square"/>
   </g>
   <g id="line2d_21">
    <path d="M 52.117574 -1 
L 52.93375 31.585149 
L 53.86375 60.460504 
L 54.79375 82.51056 
L 55.72375 99.251425 
L 56.65375 111.824902 
L 57.58375 121.117564 
L 58.32775 126.662285 
L 59.07175 130.840136 
L 59.81575 133.882045 
L 60.55975 135.992587 
L 61.11775 137.05942 
L 61.67575 137.74959 
L 62.23375 138.116519 
L 62.79175 138.204609 
L 63.34975 138.0492 
L 64.09375 137.531641 
L 64.83775 136.722797 
L 65.76775 135.376056 
L 67.06975 133.059469 
L 69.11575 128.812867 
L 76.18375 113.559894 
L 78.60175 109.087715 
L 80.64775 105.694467 
L 82.87975 102.428591 
L 85.11175 99.587622 
L 87.71575 96.757992 
L 90.13375 94.581279 
L 91.99375 93.133025 
L 94.41175 91.548857 
L 96.64375 90.301374 
L 99.06175 89.204459 
L 102.22375 88.112973 
L 103.89775 87.631381 
L 106.87375 86.990353 
L 110.03575 86.537789 
L 114.68575 86.182841 
L 117.84775 86.082111 
L 123.61375 86.206896 
L 128.44975 86.531314 
L 137.93575 87.49693 
L 153.18775 89.546821 
L 159.69775 90.508712 
L 166.02175 91.522431 
L 171.60175 92.401219 
L 190.94575 95.444825 
L 208.05775 98.135822 
L 217.35775 99.597071 
L 226.65775 101.007057 
L 241.16575 103.144396 
L 250.09375 104.459561 
L 261.62575 106.096147 
L 326.16775 114.852677 
L 328.95775 115.216005 
L 328.95775 115.216005 
" clip-path="url(#pf943511f9d)" style="fill: none; stroke: #ff0000; stroke-width: 1.5; stroke-linecap: square"/>
   </g>
   <g id="patch_3">
    <path d="M 50.14375 177.319219 
L 50.14375 10.999219 
" style="fill: none; stroke: #000000; stroke-width: 0.8; stroke-linejoin: miter; stroke-linecap: square"/>
   </g>
   <g id="patch_4">
    <path d="M 329.14375 177.319219 
L 329.14375 10.999219 
" style="fill: none; stroke: #000000; stroke-width: 0.8; stroke-linejoin: miter; stroke-linecap: square"/>
   </g>
   <g id="patch_5">
    <path d="M 50.14375 177.319219 
L 329.14375 177.319219 
" style="fill: none; stroke: #000000; stroke-width: 0.8; stroke-linejoin: miter; stroke-linecap: square"/>
   </g>
   <g id="patch_6">
    <path d="M 50.14375 10.999219 
L 329.14375 10.999219 
" style="fill: none; stroke: #000000; stroke-width: 0.8; stroke-linejoin: miter; stroke-linecap: square"/>
   </g>
   <g id="legend_1">
    <g id="patch_7">
     <path d="M 255.34375 77.711719 
L 322.14375 77.711719 
Q 324.14375 77.711719 324.14375 75.711719 
L 324.14375 17.999219 
Q 324.14375 15.999219 322.14375 15.999219 
L 255.34375 15.999219 
Q 253.34375 15.999219 253.34375 17.999219 
L 253.34375 75.711719 
Q 253.34375 77.711719 255.34375 77.711719 
z
" style="fill: #ffffff; opacity: 0.8; stroke: #cccccc; stroke-linejoin: miter"/>
    </g>
    <g id="line2d_22">
     <path d="M 257.34375 24.097656 
L 267.34375 24.097656 
L 277.34375 24.097656 
" style="fill: none; stroke: #000000; stroke-width: 1.5; stroke-linecap: square"/>
    </g>
    <g id="text_20">
     <!-- $\alpha=0.7$ -->
     <g transform="translate(285.34375 27.597656) scale(0.1 -0.1)">
      <defs>
       <path id="DejaVuSans-Oblique-3b1" d="M 2619 1628 
L 2622 2350 
Q 2625 3088 2069 3091 
Q 1653 3094 1394 2747 
Q 1069 2319 959 1747 
Q 825 1059 994 731 
Q 1169 397 1547 397 
Q 1966 397 2319 1063 
L 2619 1628 
z
M 2166 3578 
Q 3141 3594 3128 2584 
Q 3128 2584 3616 3500 
L 4128 3500 
L 3119 1603 
L 3109 919 
Q 3109 766 3194 638 
Q 3291 488 3391 488 
L 3669 488 
L 3575 0 
L 3228 0 
Q 2934 0 2722 263 
Q 2622 394 2619 669 
Q 2416 334 2066 50 
Q 1900 -81 1453 -78 
Q 722 -72 456 397 
Q 184 884 353 1747 
Q 534 2675 1009 3097 
Q 1544 3569 2166 3578 
z
" transform="scale(0.015625)"/>
       <path id="DejaVuSans-3d" d="M 678 2906 
L 4684 2906 
L 4684 2381 
L 678 2381 
L 678 2906 
z
M 678 1631 
L 4684 1631 
L 4684 1100 
L 678 1100 
L 678 1631 
z
" transform="scale(0.015625)"/>
      </defs>
      <use xlink:href="#DejaVuSans-Oblique-3b1" transform="translate(0 0.78125)"/>
      <use xlink:href="#DejaVuSans-3d" transform="translate(85.400391 0.78125)"/>
      <use xlink:href="#DejaVuSans-30" transform="translate(188.671875 0.78125)"/>
      <use xlink:href="#DejaVuSans-2e" transform="translate(252.294922 0.78125)"/>
      <use xlink:href="#DejaVuSans-37" transform="translate(276.332031 0.78125)"/>
     </g>
    </g>
    <g id="line2d_23">
     <path d="M 257.34375 38.775781 
L 267.34375 38.775781 
L 277.34375 38.775781 
" style="fill: none; stroke: #bfbf00; stroke-width: 1.5; stroke-linecap: square"/>
    </g>
    <g id="text_21">
     <!-- $\alpha=0.8$ -->
     <g transform="translate(285.34375 42.275781) scale(0.1 -0.1)">
      <use xlink:href="#DejaVuSans-Oblique-3b1" transform="translate(0 0.78125)"/>
      <use xlink:href="#DejaVuSans-3d" transform="translate(85.400391 0.78125)"/>
      <use xlink:href="#DejaVuSans-30" transform="translate(188.671875 0.78125)"/>
      <use xlink:href="#DejaVuSans-2e" transform="translate(252.294922 0.78125)"/>
      <use xlink:href="#DejaVuSans-38" transform="translate(281.457031 0.78125)"/>
     </g>
    </g>
    <g id="line2d_24">
     <path d="M 257.34375 53.453906 
L 267.34375 53.453906 
L 277.34375 53.453906 
" style="fill: none; stroke: #0000ff; stroke-width: 1.5; stroke-linecap: square"/>
    </g>
    <g id="text_22">
     <!-- $\alpha=0.9$ -->
     <g transform="translate(285.34375 56.953906) scale(0.1 -0.1)">
      <use xlink:href="#DejaVuSans-Oblique-3b1" transform="translate(0 0.78125)"/>
      <use xlink:href="#DejaVuSans-3d" transform="translate(85.400391 0.78125)"/>
      <use xlink:href="#DejaVuSans-30" transform="translate(188.671875 0.78125)"/>
      <use xlink:href="#DejaVuSans-2e" transform="translate(252.294922 0.78125)"/>
      <use xlink:href="#DejaVuSans-39" transform="translate(284.082031 0.78125)"/>
     </g>
    </g>
    <g id="line2d_25">
     <path d="M 257.34375 68.132031 
L 267.34375 68.132031 
L 277.34375 68.132031 
" style="fill: none; stroke: #ff0000; stroke-width: 1.5; stroke-linecap: square"/>
    </g>
    <g id="text_23">
     <!-- $\alpha=1.0$ -->
     <g transform="translate(285.34375 71.632031) scale(0.1 -0.1)">
      <use xlink:href="#DejaVuSans-Oblique-3b1" transform="translate(0 0.78125)"/>
      <use xlink:href="#DejaVuSans-3d" transform="translate(85.400391 0.78125)"/>
      <use xlink:href="#DejaVuSans-31" transform="translate(188.671875 0.78125)"/>
      <use xlink:href="#DejaVuSans-2e" transform="translate(252.294922 0.78125)"/>
      <use xlink:href="#DejaVuSans-30" transform="translate(284.082031 0.78125)"/>
     </g>
    </g>
   </g>
  </g>
 </g>
 <defs>
  <clipPath id="pf943511f9d">
   <rect x="50.14375" y="10.999219" width="279" height="166.32"/>
  </clipPath>
 </defs>
</svg>
